<?xml version="1.0" encoding="UTF-8" standalone="no"?>
<!-- Created with Inkscape (http://www.inkscape.org/) -->

<svg
   width="480"
   height="480"
   viewBox="0 0 127 127"
   version="1.1"
   id="svg1"
   xmlns="http://www.w3.org/2000/svg"
   xmlns:svg="http://www.w3.org/2000/svg">
  <defs
     id="defs1" />
  <g
     id="layer1">
    <g
       id="g2"
       transform="matrix(0.23283367,0,0,0.23283367,-25.862128,3.1176613)">
      <g
         id="OBJECT"
         transform="translate(-172.61011,-22.439314)">
	<g
   id="g267"
   transform="matrix(1.1239422,0,0,1.1239422,0,-1.5575821)">
		<g
   id="g164">
			<rect
   y="409.27802"
   style="opacity:0.3;fill:#326c92"
   width="750"
   height="90.722"
   id="rect2"
   x="0" />

			<g
   id="g43">
				<g
   id="g17">
					<g
   id="g3">
						<rect
   x="14.474"
   y="12.567"
   style="fill:#346e94"
   width="280.67899"
   height="140.278"
   id="rect3" />

						<path
   style="opacity:0.5;fill:#326c92"
   d="M 295.154,28.112 V 152.846 H 14.474 v -22.479 c 0,-2.43 1.698,-4.54 4.077,-5.036 92.486,-19.283 143.389,-68.009 162.014,-89.556 5.76,-6.664 14.108,-10.526 22.917,-10.526 h 88.807 c 1.582,-10e-4 2.865,1.281 2.865,2.863 z"
   id="path3" />

					</g>

					<g
   id="g16">
						<rect
   x="20.67"
   y="18.761999"
   style="fill:#f56d8e"
   width="83.439003"
   height="127.888"
   id="rect4" />

						<rect
   x="110.304"
   y="18.761999"
   style="fill:#f56d8e"
   width="89.019997"
   height="127.888"
   id="rect5" />

						<rect
   x="205.519"
   y="18.761999"
   style="fill:#f56d8e"
   width="83.439003"
   height="127.888"
   id="rect6" />

						<g
   id="g8">
							
								<line
   style="opacity:0.3;fill:none;stroke:#d94c6e;stroke-width:17.6272;stroke-linecap:round;stroke-linejoin:round;stroke-miterlimit:10"
   x1="274.64999"
   y1="57.647999"
   x2="222.616"
   y2="109.683"
   id="line6" />

							
								<line
   style="opacity:0.4;fill:none;stroke:#d94c6e;stroke-width:5.9097;stroke-linecap:round;stroke-linejoin:round;stroke-miterlimit:10"
   x1="256.18799"
   y1="38.145"
   x2="234.48199"
   y2="59.849998"
   id="line7" />

							
								<line
   style="opacity:0.4;fill:none;stroke:#d94c6e;stroke-width:5.9097;stroke-linecap:round;stroke-linejoin:round;stroke-miterlimit:10"
   x1="256.18799"
   y1="109.208"
   x2="234.48199"
   y2="130.914"
   id="line8" />

						</g>

						<g
   id="g11">
							
								<line
   style="opacity:0.3;fill:none;stroke:#d94c6e;stroke-width:17.6272;stroke-linecap:round;stroke-linejoin:round;stroke-miterlimit:10"
   x1="173.22501"
   y1="65.040001"
   x2="136.459"
   y2="101.807"
   id="line9" />

							
								<line
   style="opacity:0.4;fill:none;stroke:#d94c6e;stroke-width:5.9097;stroke-linecap:round;stroke-linejoin:round;stroke-miterlimit:10"
   x1="175.45399"
   y1="30.614"
   x2="118.595"
   y2="87.473"
   id="line10" />

							
								<line
   style="opacity:0.4;fill:none;stroke:#d94c6e;stroke-width:5.9097;stroke-linecap:round;stroke-linejoin:round;stroke-miterlimit:10"
   x1="187.265"
   y1="86.375999"
   x2="141.78101"
   y2="131.86"
   id="line11" />

						</g>

						<g
   id="g15">
							
								<line
   style="opacity:0.4;fill:none;stroke:#d94c6e;stroke-width:5.9097;stroke-linecap:round;stroke-linejoin:round;stroke-miterlimit:10"
   x1="52.241001"
   y1="31.403999"
   x2="34.647999"
   y2="48.998001"
   id="line12" />

							
								<line
   style="opacity:0.4;fill:none;stroke:#d94c6e;stroke-width:20.8321;stroke-linecap:round;stroke-linejoin:round;stroke-miterlimit:10"
   x1="86.301003"
   y1="34.355999"
   x2="35.639"
   y2="85.016998"
   id="line13" />

							
								<line
   style="opacity:0.3;fill:none;stroke:#d94c6e;stroke-width:17.6272;stroke-linecap:round;stroke-linejoin:round;stroke-miterlimit:10"
   x1="85.268997"
   y1="82.706001"
   x2="66.57"
   y2="101.405"
   id="line14" />

							
								<line
   style="opacity:0.4;fill:none;stroke:#d94c6e;stroke-width:5.9097;stroke-linecap:round;stroke-linejoin:round;stroke-miterlimit:10"
   x1="94.657997"
   y1="105.271"
   x2="58.230999"
   y2="141.698"
   id="line15" />

						</g>

					</g>

				</g>

				<g
   id="g42">
					<g
   id="g28">
						<g
   id="g18">
							<path
   style="fill:#346e94"
   d="m 139.764,381.718 c 0,13.852 -5.192,26.492 -13.733,36.075 H 45.033 c -5.893,-6.627 -10.197,-14.706 -12.298,-23.64 -0.94,-3.98 -1.435,-8.148 -1.435,-12.435 0,-17.474 8.267,-33.018 21.095,-42.924 h 66.274 c 4.834,3.724 9.002,8.25 12.349,13.374 5.535,8.506 8.746,18.652 8.746,29.55 z"
   id="path17" />

							<path
   style="opacity:0.3;fill:#326c92"
   d="m 139.764,381.718 c 0,13.852 -5.192,26.492 -13.733,36.075 H 45.033 c -5.893,-6.627 -10.197,-14.706 -12.298,-23.64 50.537,-2.755 68.808,-22.626 75.173,-34.016 2.757,-4.933 7.979,-7.969 13.63,-7.969 v 0 c 6.387,0 12.196,3.857 14.522,9.806 2.392,6.119 3.704,12.778 3.704,19.744 z"
   id="path18" />

						</g>

						<g
   id="g27">
							<g
   id="g20">
								<path
   style="fill:#ffab2f"
   d="m 118.481,300.549 c 0,0 3.416,8.814 -3.143,14.519 -6.542,5.688 -11.666,0 -11.666,0 0,0 -5.807,6.73 -17.371,5.688 -11.547,-1.042 -12.23,-9.958 -12.23,-9.958 0,0 -20.787,5.124 -18.515,-10.249 0,0 -10.522,-13.391 -8.814,-23.35 1.657,-9.668 8.387,-5.671 8.797,-5.432 -0.274,-0.529 -6.388,-12.64 0.017,-18.772 0.632,-0.615 1.298,-1.093 1.947,-1.469 6.081,-3.621 12.572,1.469 12.572,1.469 0,0 -2.101,-18.498 7.498,-18.789 9.582,-0.273 10.727,6.832 10.727,6.832 0,0 11.103,-5.978 17.935,-0.273 6.832,5.688 4.561,15.936 4.561,15.936 0,0 9.958,-2.562 13.084,8.54 0.222,0.786 0.393,1.554 0.512,2.289 1.606,9.531 -4.783,14.023 -4.783,14.023 0,0 11.393,0.205 10.829,9.873 -0.581,9.687 -11.957,9.123 -11.957,9.123 z"
   id="path19" />

								<path
   style="fill:#ea8000"
   d="m 118.481,300.549 c 0,0 3.416,8.814 -3.143,14.519 -6.542,5.688 -11.666,0 -11.666,0 0,0 -5.807,6.73 -17.371,5.688 -11.547,-1.042 -12.23,-9.958 -12.23,-9.958 0,0 -20.787,5.124 -18.515,-10.249 0,0 -10.522,-13.391 -8.814,-23.35 1.657,-9.668 8.387,-5.671 8.797,-5.432 -0.274,-0.529 -6.388,-12.64 0.017,-18.772 0.632,-0.615 1.298,-1.093 1.947,-1.469 -1.571,12.384 16.705,21.368 16.705,21.368 0,0 -0.137,9.805 9.958,9.241 10.112,-0.564 9.258,-7.926 9.258,-7.926 0,0 20.975,4.373 30.968,-6.678 1.606,9.531 -4.783,14.023 -4.783,14.023 0,0 11.393,0.205 10.829,9.873 -0.581,9.686 -11.957,9.122 -11.957,9.122 z"
   id="path20" />

							</g>

							<g
   id="g22">
								<path
   style="fill:#ea8000"
   d="m 85.447,307.757 c -1.128,9.958 -11.376,11.666 -11.376,11.666 0,0 2.562,19.079 -6.832,23.128 -9.394,4.048 -15.099,-3.758 -15.099,-3.758 0,0 -5.978,9.395 -17.218,6.252 -11.239,-3.126 -11.239,-17.081 -11.239,-17.081 0,0 -4.27,3.416 -8.267,-3.416 -1.435,-2.443 -1.059,-5.227 0,-7.789 1.879,-4.578 5.978,-8.438 5.978,-8.438 0,0 -5.398,-0.564 -3.69,-9.514 1.708,-8.933 17.218,-9.548 17.218,-9.548 0,0 -6.696,-9.121 6.696,-12.537 13.375,-3.416 22.769,12.537 22.769,12.537 0.068,-0.034 0.12,-0.068 0.188,-0.085 11.87,-6.031 22.016,8.676 20.872,18.583 z"
   id="path21" />

								<path
   style="opacity:0.3;fill:#326c92"
   d="m 85.447,307.757 c -1.128,9.958 -11.376,11.666 -11.376,11.666 0,0 2.562,19.079 -6.832,23.128 -9.394,4.048 -15.099,-3.758 -15.099,-3.758 0,0 -5.978,9.395 -17.218,6.252 -11.239,-3.126 -11.239,-17.081 -11.239,-17.081 0,0 -4.27,3.416 -8.267,-3.416 -1.435,-2.443 -1.059,-5.227 0,-7.789 5.483,13.067 18.789,10.59 24.631,2.75 6.2,-8.335 12.179,-8.472 12.179,-8.472 0.854,-8.899 9.804,-12.161 9.804,-12.161 -0.273,-3.621 1.008,-7.038 2.545,-9.702 11.87,-6.031 22.016,8.676 20.872,18.583 z"
   id="path22" />

							</g>

							<g
   id="g24">
								<path
   style="fill:#ea8000"
   d="m 148.287,320.294 c -1.999,5.569 -7.601,8.524 -7.601,8.524 0,0 4.834,6.832 0.273,10.249 -4.544,3.416 -8.25,-1.982 -8.25,-1.982 0,0 -3.706,9.395 -12.52,8.609 -8.831,-0.786 -9.121,-11.171 -9.121,-11.171 0,0 -7.96,3.98 -12.23,-2.289 -4.27,-6.252 1.128,-11.103 1.128,-11.103 0,0 -3.98,-2.272 -1.982,-10.164 1.982,-7.891 11.957,-8.045 11.957,-8.045 2.648,-2.46 5.056,-4.151 7.242,-5.227 v -0.017 c 13.272,-6.679 18.089,8.66 18.089,8.66 0,0 11.102,-2.852 13.374,7.106 0.598,2.598 0.342,4.886 -0.359,6.85 z"
   id="path23" />

								<path
   style="opacity:0.3;fill:#326c92"
   d="m 140.686,328.818 c 0,0 4.834,6.832 0.273,10.249 -4.544,3.416 -8.25,-1.982 -8.25,-1.982 0,0 -3.706,9.395 -12.52,8.609 -8.831,-0.786 -9.121,-11.171 -9.121,-11.171 0,0 -7.96,3.98 -12.23,-2.289 -4.27,-6.252 1.128,-11.103 1.128,-11.103 0,0 -3.98,-2.272 -1.982,-10.164 1.982,-7.891 11.957,-8.045 11.957,-8.045 2.648,-2.46 5.056,-4.151 7.242,-5.227 0.017,5.432 10.693,11.632 10.693,11.632 0,0 -1.178,9.787 4.39,13.426 5.568,3.655 9.548,-3.467 9.548,-3.467 0,0 3.125,1.093 6.473,1.008 -1.998,5.569 -7.601,8.524 -7.601,8.524 z"
   id="path24" />

							</g>

							<g
   id="g26">
								<path
   style="fill:#ffab2f"
   d="m 123.042,320.858 c -0.547,6.337 -4.817,11.103 -4.817,11.103 0,0 6.832,5.978 1.144,13.392 -5.705,7.396 -13.101,1.777 -13.101,1.777 0,0 1.708,9.889 -7.396,12.742 -9.121,2.835 -15.663,-3.997 -15.663,-3.997 0,0 -2.272,13.955 -13.374,13.391 -11.103,-0.581 -5.705,-16.227 -5.705,-16.227 -9.395,-1.11 -6.081,-11.649 -5.893,-12.23 -0.529,0.307 -10.983,6.456 -14.604,-7.413 -0.119,-0.444 -0.205,-0.888 -0.273,-1.298 -2.118,-12.879 17.645,-11.974 17.645,-11.974 -2.272,-10.419 9.104,-16.688 9.104,-16.688 0,0 -5.688,-11.034 5.978,-16.739 11.683,-5.688 13.187,5.414 13.187,5.414 12.606,-4.56 14.724,7.123 14.724,7.123 0,0 4.544,-1.435 7.396,1.332 2.852,2.75 2.272,6.917 2.272,6.917 0,0 7.413,0.854 9.121,9.156 0.306,1.469 0.357,2.887 0.255,4.219 z"
   id="path25" />

								<path
   style="fill:#ea8000"
   d="m 119.369,345.352 c -5.705,7.396 -13.101,1.777 -13.101,1.777 0,0 1.708,9.889 -7.396,12.742 -9.121,2.835 -15.663,-3.997 -15.663,-3.997 0,0 -2.272,13.955 -13.374,13.391 -11.103,-0.581 -5.705,-16.227 -5.705,-16.227 -9.395,-1.11 -6.081,-11.649 -5.893,-12.23 -0.529,0.307 -10.983,6.456 -14.604,-7.413 -0.119,-0.444 -0.205,-0.888 -0.273,-1.298 2.958,0.67 6.882,0.53 10.524,0.122 4.372,-0.49 8.335,2.24 9.657,6.435 0.726,2.303 2.476,4.571 6.174,6.032 5.251,2.083 8.933,-0.265 11.275,-3.049 1.972,-2.345 5.294,-2.854 7.94,-1.308 1.676,0.98 3.674,1.555 5.775,0.889 4.259,-1.356 5.715,-4.479 6.054,-7.437 0.407,-3.559 3.131,-6.368 6.694,-6.742 4.896,-0.513 11.198,-2.028 15.59,-6.182 -0.547,6.337 -4.817,11.103 -4.817,11.103 0,0 6.831,5.979 1.143,13.392 z"
   id="path26" />

							</g>

						</g>

					</g>

					<g
   id="g41">
						<g
   id="g38">
							<g
   id="g29">
								<path
   style="fill:#80aa74"
   d="m 289.923,299.408 c 0,0 13.268,10.838 28.415,-3.349 0,0 -1.011,-11.796 -4.044,-15.993 -3.033,-4.196 5.345,-1.825 7.089,9.69 0,0 15.311,-1.623 21.956,-9.287 0,0 -2.067,-11.23 -5.248,-18.794 -3.181,-7.563 4.657,-0.899 8.678,13.221 0,0 7.462,-0.388 12.676,-2.606 5.215,-2.218 6.973,-8.504 6.973,-8.504 0,0 -3.48,-12.833 -6.685,-19.327 -3.205,-6.494 5.113,0.575 9.518,14.388 0,0 11.977,1.017 19.821,-3.282 7.843,-4.299 9.084,-12.22 9.084,-12.22 0,0 -0.57,-6.022 -2.65,-10.812 -2.08,-4.79 3.819,-1.148 5.711,8.528 0,0 11.239,-6.447 11.232,-15.736 -0.007,-9.289 -15.101,-9.171 -15.101,-9.171 0,0 -68.854,7.213 -107.425,83.254 z"
   id="path28" />

								<path
   style="fill:#5c8951"
   d="m 264.037,350.94 c 0,0 30.348,-118.433 133.31,-134.786 0,0 -87.399,11.115 -127.541,135.434 z"
   id="path29" />

							</g>

							<g
   id="g31">
								<path
   style="fill:#80aa74"
   d="m 243.147,296.976 c 0,0 -17.144,10.312 -25.41,-5.604 0,0 7.43,-14.618 11.108,-17.165 3.678,-2.548 -7.046,2.27 -11.778,11.153 0,0 -11.583,-9.381 -14.794,-17.538 0,0 7.699,-10.196 12.465,-15.446 4.767,-5.25 -7.326,-0.052 -14.662,10.3 0,0 -2.703,-3.631 -6.315,-6.938 -3.612,-3.307 -5.316,-9.495 -5.316,-9.495 0,0 9.125,-9.75 13.604,-14.12 4.479,-4.371 -7.372,0.448 -14.934,10.44 0,0 -7.014,-4.064 -12.17,-9.823 -5.156,-5.758 -3.89,-12.571 -3.89,-12.571 0,0 2.196,-4.744 5.268,-8.05 3.072,-3.306 -2.783,-2.034 -7.106,5.308 0,0 -7.306,-8.486 -4.63,-16.054 2.677,-7.568 14.944,-3.133 14.944,-3.133 0,0 54.043,25.673 63.616,98.736 z"
   id="path30" />

								<path
   style="fill:#5c8951"
   d="m 249.428,346.416 c 0,0 9.317,-105.247 -69.895,-148.177 0,0 68.034,34.186 65.007,147.047 z"
   id="path31" />

							</g>

							<g
   id="g33">
								<path
   style="fill:#80aa74"
   d="m 306.292,321.539 c 0,0 6.371,10.115 19.54,4.094 0,0 1.951,-8.028 0.876,-11.477 -1.075,-3.449 3.941,-0.02 2.538,7.984 0,0 10.489,2.326 16.586,-1.269 0,0 1.126,-7.888 0.702,-13.597 -0.425,-5.709 3.28,0.439 2.805,10.673 0,0 5.022,1.4 8.964,1.091 3.942,-0.309 6.5,-4.077 6.5,-4.077 0,0 0.548,-9.262 -0.131,-14.269 -0.679,-5.007 3.254,1.515 3.102,11.631 0,0 7.697,3.332 13.84,2.23 6.143,-1.102 8.722,-6.067 8.722,-6.067 0,0 0.96,-4.11 0.648,-7.741 -0.313,-3.63 2.781,0.089 1.884,6.909 0,0 8.866,-1.769 10.924,-7.915 2.057,-6.146 -7.953,-9.42 -7.953,-9.42 0,0 -47.148,-10.517 -89.547,31.22 z"
   id="path32" />

								<path
   style="fill:#5c8951"
   d="m 277.727,349.879 c 0,0 46.371,-71.604 118.11,-59.561 0,0 -60.282,-12.053 -114.438,61.27 z"
   id="path33" />

							</g>

							<g
   id="g35">
								<path
   style="fill:#80aa74"
   d="m 218.649,304.707 c 0,0 -11.685,9.115 -24.509,-3.448 0,0 1.103,-10.182 3.808,-13.752 2.705,-3.57 -4.588,-1.682 -6.319,8.242 0,0 -13.21,-1.701 -18.808,-8.458 0,0 2.006,-9.672 4.903,-16.151 2.897,-6.479 -4.01,-0.868 -7.762,11.266 0,0 -6.446,-0.48 -10.912,-2.5 -4.467,-2.019 -5.865,-7.49 -5.865,-7.49 0,0 3.259,-11.031 6.157,-16.585 2.898,-5.554 -4.433,0.398 -8.511,12.258 0,0 -10.378,0.647 -17.078,-3.223 -6.7,-3.87 -7.619,-10.745 -7.619,-10.745 0,0 0.61,-5.197 2.502,-9.299 1.892,-4.102 -3.28,-1.067 -5.104,7.264 0,0 -9.595,-5.794 -9.408,-13.827 0.187,-8.033 13.238,-7.638 13.238,-7.638 0,0 59.406,7.573 91.287,74.086 z"
   id="path34" />

								<path
   style="fill:#5c8951"
   d="m 240.035,349.775 c 0,0 -23.946,-103.014 -112.672,-119.155 0,0 75.369,11.31 107.671,119.604 z"
   id="path35" />

							</g>

							<g
   id="g37">
								<path
   style="fill:#80aa74"
   d="m 259.592,312.704 c 0,0 -13.742,-10.308 -14.153,-34.471 -0.424,-24.905 4.382,-31.993 4.382,-31.993 0,0 8.35,5.001 9.765,4.535 1.414,-0.466 -8.949,-7.467 -8.949,-7.467 0,0 3.208,-14.982 5.835,-18.604 0,0 5.872,4.119 7.314,4.146 1.441,0.028 -7.24,-8.674 -7.24,-8.674 0,0 4.067,-13.638 5.46,-17.026 1.398,-3.4 4.421,-9.016 4.421,-9.016 0,0 4.368,2.364 5.403,2.219 1.034,-0.145 -5.427,-3.606 -5.427,-3.606 0,0 8.248,-27.207 15.378,-31.258 7.143,-4.058 12.02,34.763 12.02,34.763 0,0 -10.496,5.21 -10.669,6.402 -0.172,1.191 10.673,-3.145 10.673,-3.145 0,0 1.454,15.125 1.638,27.303 0,0 -15.281,6.811 -15.44,8.783 -0.159,1.967 15.441,-5.314 15.441,-5.314 0,0 1.412,16.547 0.01,25.827 0,0 -13.438,6.51 -16.75,8.061 -3.311,1.551 15.879,-4.424 15.879,-4.424 0,0 -1.026,13.206 -5.987,26.782 -4.889,13.381 -19.834,22.121 -29.004,26.177 z"
   id="path36" />

								<path
   style="fill:#5c8951"
   d="m 255.637,349.032 c 0,0 2.967,-93.751 27.857,-182.821 0,0 -19.809,105.611 -22.419,182.821 z"
   id="path37" />

							</g>

						</g>

						<g
   id="g40">
							<g
   id="g39">
								<path
   style="fill:#346e94"
   d="m 310.287,358.987 v 48.389 c 0,5.752 -4.663,10.416 -10.416,10.416 h -65.015 c -5.752,0 -10.416,-4.663 -10.416,-10.416 v -48.389 z"
   id="path38" />

								<path
   style="opacity:0.3;fill:#326c92"
   d="m 310.287,381.101 v 26.275 c 0,5.752 -4.663,10.416 -10.416,10.416 h -65.015 c -5.752,0 -10.416,-4.663 -10.416,-10.416 v -5.438 c 19.711,-4.414 30.663,-16.167 36.257,-24.816 4.031,-6.234 10.88,-10.068 18.304,-10.068 h 17.237 c 7.76,0 14.049,6.289 14.049,14.047 z"
   id="path39" />

							</g>

							<rect
   x="218.836"
   y="341.048"
   style="fill:#b23d56"
   width="97.056"
   height="17.936001"
   id="rect39" />

							<rect
   x="262.81699"
   y="341.048"
   style="fill:#492941"
   width="53.076"
   height="17.936001"
   id="rect40" />

						</g>

					</g>

				</g>

			</g>

			<g
   id="g163">
				<g
   id="g57">
					<path
   style="fill:#0c1a3c"
   d="M 605.268,127.655 H 533.74 c -2.946,0 -5.334,-2.388 -5.334,-5.334 v -1.697 c 0,-2.946 2.388,-5.334 5.334,-5.334 h 71.528 c 2.946,0 5.334,2.388 5.334,5.334 v 1.697 c 0,2.946 -2.388,5.334 -5.334,5.334 z"
   id="path43" />

					<g
   id="g56">
						<g
   id="g44">
							<polygon
   style="fill:#65a4c5"
   points="599.634,92.604 598.325,98.264 594.41,115.295 544.605,115.295 543.783,111.747 539.38,92.604 "
   id="polygon43" />

							<path
   style="fill:#346e94"
   d="m 598.325,98.264 -3.915,17.031 h -49.805 l -0.822,-3.548 h 0.112 c 19.364,0 26.494,-7.898 28.774,-11.604 0.721,-1.172 1.996,-1.878 3.372,-1.878 h 22.284 z"
   id="path44" />

						</g>

						<g
   id="g55">
							<g
   id="g46">
								<path
   style="fill:#f56d8e"
   d="m 599.398,69.892 c 0,0 3.72,0.126 3.831,2.563 0.111,2.438 -16.718,11.02 -17.526,11.493 -0.822,0.46 -8.944,2.09 -9.292,2.201 -0.348,0.111 -4.179,-3.72 -4.179,-3.72 0,-0.348 0.459,-13.458 5.113,-18.459 0.474,-0.502 0.892,-0.878 1.268,-1.129 0.014,-0.014 0,-0.014 0,-0.014 3.344,-2.354 3.26,3.929 3.26,3.929 0,0 5.921,-9.864 9.404,-10.797 3.372,-0.892 1.728,4.514 1.63,4.862 0.362,-0.446 6.548,-7.969 11.828,-7.063 5.461,0.934 -3.135,8.47 -3.135,8.47 0,0 5.461,-1.156 6.618,1.17 0.056,0.111 0.098,0.237 0.098,0.362 0.095,2.357 -8.918,6.132 -8.918,6.132 z"
   id="path45" />

								<path
   style="fill:#d94c6e"
   d="m 599.398,69.892 c 0,0 3.72,0.126 3.831,2.563 0.111,2.438 -16.718,11.02 -17.526,11.493 -0.822,0.46 -8.944,2.09 -9.292,2.201 -0.348,0.111 -4.179,-3.72 -4.179,-3.72 0,-0.348 0.459,-13.458 5.113,-18.459 0.474,-0.502 0.892,-0.878 1.268,-1.129 -0.864,2.313 -1.922,6.06 -1.114,9.334 1.198,4.834 16.495,-8.707 30.816,-8.415 0.096,2.357 -8.917,6.132 -8.917,6.132 z"
   id="path46" />

							</g>

							<g
   id="g48">
								<path
   style="fill:#f56d8e"
   d="m 575.129,81.274 c -8.93,6.729 -23.21,-5.113 -24.032,-8.122 -0.808,-3.023 5.002,-2.786 5.002,-2.786 0,0 -8.693,-3.344 -9.264,-6.214 -0.014,-0.07 -0.028,-0.125 -0.028,-0.181 -0.237,-2.898 3.246,-2.438 3.246,-2.438 0,0 -8.011,-8.707 -6.729,-11.257 1.24,-2.452 5.029,-0.724 5.322,-0.599 -0.363,-0.39 -7.732,-8.582 -2.299,-9.264 5.573,-0.697 8.819,5.336 8.819,5.336 0,0 -0.808,-8.47 5.809,-2.897 6.617,5.573 8.011,16.369 8.011,16.369 0,0 1.741,-6.966 4.054,-0.585 1.686,4.611 2.02,14.336 2.076,19.407 0.027,1.963 0.013,3.231 0.013,3.231 z"
   id="path47" />

								<path
   style="fill:#d94c6e"
   d="m 575.129,81.274 c -8.93,6.729 -23.21,-5.113 -24.032,-8.122 -0.808,-3.023 5.002,-2.786 5.002,-2.786 0,0 -8.693,-3.344 -9.264,-6.214 3.956,1.059 10.588,1.811 17.554,7.523 5.113,4.193 8.457,5.879 10.728,6.367 0.026,1.964 0.012,3.232 0.012,3.232 z"
   id="path48" />

							</g>

							<g
   id="g50">
								<path
   style="fill:#f56d8e"
   d="m 569.682,83.364 -3.608,4.417 c 0,0 -7.662,15.325 -10.212,14.043 -2.55,-1.282 -1.282,-7.314 -1.282,-7.314 0,0 -4.528,12.887 -7.077,11.953 -2.55,-0.919 -3.372,-6.032 -3.372,-6.032 0,0 -2.549,9.515 -5.795,9.752 -3.26,0.237 -3.023,-6.729 -3.023,-6.729 0,0 -6.854,8.359 -8.707,4.291 -0.209,-0.446 -0.265,-0.975 -0.195,-1.56 0.446,-4.751 8.443,-13.305 8.443,-13.305 0,0 -10.922,4.068 -8.707,-0.571 2.201,-4.653 15.088,-9.404 15.088,-9.404 0,0 -11.605,-1.17 -5.81,-4.528 5.81,-3.372 16.718,-0.585 16.718,-0.585 0,0 -3.831,-6.729 3.483,-5.461 5.67,0.989 11.006,7.091 13.11,9.766 0.611,0.779 0.946,1.267 0.946,1.267 z"
   id="path49" />

								<path
   style="fill:#d94c6e"
   d="m 569.682,83.364 -3.608,4.417 c 0,0 -7.662,15.325 -10.212,14.043 -2.55,-1.282 -1.282,-7.314 -1.282,-7.314 0,0 -4.528,12.887 -7.077,11.953 -2.55,-0.919 -3.372,-6.032 -3.372,-6.032 0,0 -2.549,9.515 -5.795,9.752 -3.26,0.237 -3.023,-6.729 -3.023,-6.729 0,0 -6.854,8.359 -8.707,4.291 -0.209,-0.446 -0.265,-0.975 -0.195,-1.56 13.43,-4.709 23.321,-22.123 30.315,-23.837 3.594,-0.892 8.275,-0.697 12.009,-0.251 0.612,0.779 0.947,1.267 0.947,1.267 z"
   id="path50" />

							</g>

							<g
   id="g52">
								<path
   style="fill:#f56d8e"
   d="m 612.284,94.049 c 0,0 3.135,4.75 1.853,8.011 -0.042,0.097 -0.083,0.195 -0.139,0.279 -1.561,2.521 -7.983,-4.235 -7.983,-4.235 0,0 0.697,2.786 -1.978,4.528 -2.661,1.741 -7.774,-8.471 -7.774,-8.471 0,0 0.111,7.662 -3.594,7.426 -3.72,-0.223 -5.809,-7.426 -5.809,-7.426 0,0 0.585,6.854 -2.675,7.662 -3.246,0.808 -7.662,-15.213 -7.662,-15.213 l 1.979,-3.246 c 0,0 0.529,-0.418 1.463,-1.059 2.41,-1.616 7.537,-4.611 13.625,-5.447 8.484,-1.156 2.675,5.113 2.675,5.113 0,0 9.292,0.112 11.842,2.675 2.549,2.549 -1.282,3.009 -1.282,3.009 0,0 6.158,1.867 7.788,4.528 1.614,2.674 -2.329,1.866 -2.329,1.866 z"
   id="path51" />

								<path
   style="fill:#d94c6e"
   d="m 613.998,102.339 c -1.561,2.521 -7.983,-4.235 -7.983,-4.235 0,0 0.697,2.786 -1.978,4.528 -2.661,1.741 -7.774,-8.471 -7.774,-8.471 0,0 0.111,7.662 -3.594,7.426 -3.72,-0.223 -5.809,-7.426 -5.809,-7.426 0,0 0.585,6.854 -2.675,7.662 -3.246,0.808 -7.662,-15.213 -7.662,-15.213 l 1.979,-3.246 c 0,0 0.529,-0.418 1.463,-1.059 4.444,3.26 23.168,5.628 33.408,19.198 0.207,0.278 0.43,0.557 0.625,0.836 z"
   id="path52" />

							</g>

							<g
   id="g54">
								<path
   style="fill:#f56d8e"
   d="m 580.005,103.077 c -0.097,0.306 -0.223,0.557 -0.348,0.724 -1.741,2.313 -4.054,-1.867 -4.054,-1.867 0,0 -0.697,13.82 -3.023,14.628 -2.327,0.822 -4.068,-4.639 -4.068,-4.639 0,0 -2.661,9.864 -6.84,7.426 -4.054,-2.368 -0.474,-13.346 -0.251,-14.015 -0.181,0.334 -2.146,3.915 -3.469,1.365 -0.32,-0.613 -0.348,-1.588 -0.195,-2.744 0.488,-3.747 2.814,-9.278 2.968,-9.668 -0.279,0.139 -3.678,1.937 -3.009,-1.519 0.697,-3.594 9.697,-12.009 14.865,-12.775 3.135,-0.46 5.573,-0.46 7.203,2.786 1.489,3.023 1.6,16.467 0.221,20.298 z"
   id="path53" />

								<path
   style="fill:#d94c6e"
   d="m 580.005,103.077 c -0.097,0.306 -0.223,0.557 -0.348,0.724 -1.741,2.313 -4.054,-1.867 -4.054,-1.867 0,0 -0.697,13.82 -3.023,14.628 -2.327,0.822 -4.068,-4.639 -4.068,-4.639 0,0 -2.661,9.864 -6.84,7.426 -4.054,-2.368 -0.474,-13.346 -0.251,-14.015 -0.181,0.334 -2.146,3.915 -3.469,1.365 -0.32,-0.613 -0.348,-1.588 -0.195,-2.744 2.201,-0.265 5.517,-3.817 5.517,-3.817 0,0 -3.037,9.919 -0.516,12.706 2.522,2.786 6.548,-7.119 6.548,-7.119 0,0 -0.32,5.294 1.741,6.771 2.076,1.491 3.734,-15.673 3.734,-15.673 0,0 1.42,4.652 5.224,6.254 z"
   id="path54" />

							</g>

						</g>

					</g>

				</g>

				<g
   id="g65">
					<g
   id="g64">
						<g
   id="g62">
							<path
   style="fill:#ffab2f"
   d="m 468.343,104.356 c 0,0 -10.93,-18.976 -16.552,-26.235 -5.622,-7.259 -14.477,-11.554 -14.477,-11.554 0,0 15.357,0.052 22.671,11.055 7.313,11.003 8.358,26.734 8.358,26.734 z"
   id="path57" />

							<path
   style="fill:#f56d8e"
   d="m 467.389,102.713 c 0,0 15.118,-21.146 22.781,-26.73 7.662,-5.585 21.07,-5.121 21.07,-5.121 0,0 -4.505,3.158 -13.059,8.657 -8.555,5.499 -22.575,20.333 -30.792,23.194 z"
   id="path58" />

							<path
   style="fill:#f56d8e"
   d="m 467.519,103.404 c 0,0 -6.36,-1.323 -17.414,-10.527 -11.055,-9.204 -21.757,-12.823 -21.757,-12.823 0,0 33.25,-4.072 39.171,23.35 z"
   id="path59" />

							<path
   style="fill:#f56d8e"
   d="m 468.565,103.534 c 0,0 6.474,-0.531 18.577,-8.305 12.103,-7.774 23.169,-10.048 23.169,-10.048 0,0 -32.497,-8.132 -41.746,18.353 z"
   id="path60" />

							<path
   style="fill:#f56d8e"
   d="m 466.45,104.381 c 0,0 -4.484,-11.846 -3.824,-21.458 0.66,-9.612 -6.255,-21.232 5.694,-40.511 0,0 -3.394,15.322 1.118,27.863 4.512,12.542 1.841,24.152 -2.988,34.106 z"
   id="path61" />

							<path
   style="fill:#ffab2f"
   d="m 468.343,104.356 c 0,0 -0.929,-11.842 6.85,-23.161 7.779,-11.319 6.385,-16.708 11.261,-23.156 4.876,-6.448 4.876,-10.628 4.876,-10.628 0,0 2.09,9.546 -2.438,20.968 -4.527,11.423 -7.836,28.489 -20.549,35.977 z"
   id="path62" />

						</g>

						<g
   id="g63">
							<rect
   x="456.73499"
   y="98.508003"
   style="fill:#65a4c5"
   width="26.118"
   height="45.827"
   id="rect62" />

							<rect
   x="456.73499"
   y="98.508003"
   style="opacity:0.3;fill:#326c92"
   width="26.118"
   height="6.8629999"
   id="rect63" />

						</g>

					</g>

					<path
   style="fill:#0c1a3c"
   d="M 505.558,156.7 H 434.03 c -2.946,0 -5.334,-2.388 -5.334,-5.334 v -1.697 c 0,-2.946 2.388,-5.334 5.334,-5.334 h 71.528 c 2.946,0 5.334,2.388 5.334,5.334 v 1.697 c 0,2.946 -2.388,5.334 -5.334,5.334 z"
   id="path64" />

				</g>

				<g
   id="g162">
					<g
   id="g101">
						<g
   id="g67">
							<g
   id="g66">
								<rect
   x="665.06799"
   y="83.583"
   style="fill:#65a4c5"
   width="47.327"
   height="60.752998"
   id="rect65" />

								<path
   style="fill:#346e94"
   d="m 712.395,109.636 v 34.7 h -47.327 v -12.875 c 14.363,-2.758 20.565,-16.074 23.165,-25.24 1.499,-5.284 6.346,-8.909 11.839,-8.909 v 0 c 6.806,0 12.323,5.517 12.323,12.324 z"
   id="path65" />

							</g>

							<rect
   x="665.06799"
   y="83.585999"
   style="fill:#0c1a3c"
   width="47.327"
   height="8.6029997"
   id="rect66" />

							<rect
   x="665.06799"
   y="135.73"
   style="fill:#346e94"
   width="47.327"
   height="8.6029997"
   id="rect67" />

							<path
   style="fill:#65a4c5"
   d="m 712.395,144.333 h -26.7 v -1.413 c 0,-3.971 3.219,-7.19 7.19,-7.19 h 19.51 z"
   id="path67" />

						</g>

						<g
   id="g100">
							<g
   id="g73">
								<path
   style="fill:#346e94"
   d="m 702.409,61.883 c 0,0 -10.923,-1.594 -12.679,8.899 -1.756,10.493 11.651,25.559 26.944,26.151 0,0 11.6,-17.581 6.319,-31.303 -5.283,-13.722 -17.395,-9.378 -20.584,-3.747 z"
   id="path68" />

								<g
   id="g72">
									
										<path
   style="fill:none;stroke:#0c1a3c;stroke-width:0.9235;stroke-linecap:round;stroke-linejoin:round;stroke-miterlimit:10"
   d="m 702.951,63.315 c 0,0 7.119,12.125 12.634,31.738"
   id="path69" />

									
										<path
   style="fill:none;stroke:#0c1a3c;stroke-width:0.9235;stroke-linecap:round;stroke-linejoin:round;stroke-miterlimit:10"
   d="m 694.517,78.877 c 0,0 2.282,-10.08 9.009,-14.532 0,0 9.729,-2.15 17.92,2.608"
   id="path70" />

									
										<path
   style="fill:none;stroke:#0c1a3c;stroke-width:0.9235;stroke-linecap:round;stroke-linejoin:round;stroke-miterlimit:10"
   d="m 700.668,84.736 c 0,0 1.835,-9.695 6.356,-13.296 0,0 6.513,-0.507 12.674,3.218"
   id="path71" />

									
										<path
   style="fill:none;stroke:#0c1a3c;stroke-width:0.9235;stroke-linecap:round;stroke-linejoin:round;stroke-miterlimit:10"
   d="m 707.217,89.052 c 0,0 1.099,-5.822 3.487,-8.774 0,0 5.125,1.074 8.174,3.454"
   id="path72" />

								</g>

							</g>

							<g
   id="g78">
								<path
   style="fill:#346e94"
   d="m 675.364,63.63 c 0,0 -6.224,-9.116 -15.134,-3.303 -8.91,5.813 -10.917,25.88 -0.997,37.535 0,0 20.792,-3.369 27.313,-16.548 6.52,-13.18 -4.879,-19.15 -11.182,-17.684 z"
   id="path73" />

								<g
   id="g77">
									
										<path
   style="fill:none;stroke:#0c1a3c;stroke-width:0.9235;stroke-linecap:round;stroke-linejoin:round;stroke-miterlimit:10"
   d="m 674.678,64.999 c 0,0 -4.102,13.449 -14.799,30.788"
   id="path74" />

									
										<path
   style="fill:none;stroke:#0c1a3c;stroke-width:0.9235;stroke-linecap:round;stroke-linejoin:round;stroke-miterlimit:10"
   d="m 657.515,69.331 c 0,0 8.962,-5.147 16.794,-3.211 0,0 8.17,5.703 10.216,14.952"
   id="path75" />

									
										<path
   style="fill:none;stroke:#0c1a3c;stroke-width:0.9235;stroke-linecap:round;stroke-linejoin:round;stroke-miterlimit:10"
   d="m 657.369,77.825 c 0,0 8.376,-5.215 14.087,-4.327 0,0 4.783,4.449 6.214,11.505"
   id="path76" />

									
										<path
   style="fill:none;stroke:#0c1a3c;stroke-width:0.9235;stroke-linecap:round;stroke-linejoin:round;stroke-miterlimit:10"
   d="m 658.629,85.566 c 0,0 5.028,-3.134 8.817,-3.376 0,0 2.681,4.498 2.993,8.354"
   id="path77" />

								</g>

							</g>

							<g
   id="g79">
								<path
   style="fill:#0c1a3c"
   d="m 682.009,49.012 c 0,0 11.015,0.722 11.933,-9.878 0.918,-10.599 -13.643,-24.553 -28.935,-23.93 0,0 -10.168,18.446 -3.814,31.706 6.354,13.26 18.083,7.969 20.816,2.102 z"
   id="path78" />

							</g>

							<g
   id="g84">
								<path
   style="fill:#65a4c5"
   d="m 690.632,50.164 c 0,0 5.397,9.629 14.785,4.623 9.388,-5.006 13.153,-24.819 4.297,-37.301 0,0 -21.008,1.526 -28.663,14.08 -7.655,12.553 3.174,19.504 9.581,18.598 z"
   id="path79" />

								<g
   id="g83">
									
										<path
   style="fill:none;stroke:#346e94;stroke-width:0.9235;stroke-linecap:round;stroke-linejoin:round;stroke-miterlimit:10"
   d="m 691.437,48.86 c 0,0 5.269,-13.036 17.451,-29.366"
   id="path80" />

									
										<path
   style="fill:none;stroke:#346e94;stroke-width:0.9235;stroke-linecap:round;stroke-linejoin:round;stroke-miterlimit:10"
   d="m 708.914,46.056 c 0,0 -9.38,4.338 -17.011,1.721 0,0 -7.637,-6.4 -8.86,-15.793"
   id="path81" />

									
										<path
   style="fill:none;stroke:#346e94;stroke-width:0.9235;stroke-linecap:round;stroke-linejoin:round;stroke-miterlimit:10"
   d="m 709.807,37.608 c 0,0 -8.802,4.457 -14.414,3.07 0,0 -4.373,-4.852 -5.178,-12.008"
   id="path82" />

									
										<path
   style="fill:none;stroke:#346e94;stroke-width:0.9235;stroke-linecap:round;stroke-linejoin:round;stroke-miterlimit:10"
   d="m 709.234,29.786 c 0,0 -5.284,2.679 -9.08,2.587 0,0 -2.274,-4.717 -2.246,-8.585"
   id="path83" />

								</g>

							</g>

							<g
   id="g89">
								<path
   style="fill:#ea8000"
   d="m 671.406,43.225 c 0,0 -5.09,-9.795 -14.631,-5.088 -9.541,4.707 -13.932,24.39 -5.476,37.147 0,0 21.046,-0.86 29.095,-13.165 8.048,-12.307 -2.555,-19.597 -8.988,-18.894 z"
   id="path84" />

								<g
   id="g88">
									
										<path
   style="fill:none;stroke:#ffab2f;stroke-width:0.9235;stroke-linecap:round;stroke-linejoin:round;stroke-miterlimit:10"
   d="m 670.56,44.502 c 0,0 -5.68,12.862 -18.372,28.799"
   id="path85" />

									
										<path
   style="fill:none;stroke:#ffab2f;stroke-width:0.9235;stroke-linecap:round;stroke-linejoin:round;stroke-miterlimit:10"
   d="m 653.003,46.752 c 0,0 9.513,-4.039 17.057,-1.181 0,0 7.43,6.638 8.356,16.066"
   id="path86" />

									
										<path
   style="fill:none;stroke:#ffab2f;stroke-width:0.9235;stroke-linecap:round;stroke-linejoin:round;stroke-miterlimit:10"
   d="m 651.843,55.167 c 0,0 8.939,-4.176 14.504,-2.612 0,0 4.217,4.989 4.795,12.166"
   id="path87" />

									
										<path
   style="fill:none;stroke:#ffab2f;stroke-width:0.9235;stroke-linecap:round;stroke-linejoin:round;stroke-miterlimit:10"
   d="m 652.168,63.003 c 0,0 5.366,-2.511 9.158,-2.298 0,0 2.124,4.786 1.973,8.652"
   id="path88" />

								</g>

							</g>

							<g
   id="g94">
								<path
   style="fill:#ea8000"
   d="m 708.318,39.917 c 0,0 -11.025,0.552 -10.715,11.187 0.309,10.635 16.381,22.818 31.499,20.437 0,0 7.975,-19.495 0.135,-31.934 -7.84,-12.44 -18.881,-5.832 -20.919,0.31 z"
   id="path89" />

								<g
   id="g93">
									
										<path
   style="fill:none;stroke:#ffab2f;stroke-width:0.9235;stroke-linecap:round;stroke-linejoin:round;stroke-miterlimit:10"
   d="m 709.128,41.217 c 0,0 9.333,10.517 18.542,28.689"
   id="path90" />

									
										<path
   style="fill:none;stroke:#ffab2f;stroke-width:0.9235;stroke-linecap:round;stroke-linejoin:round;stroke-miterlimit:10"
   d="m 703.867,58.119 c 0,0 0.286,-10.331 6.024,-16.002 0,0 9.128,-3.994 18.086,-0.913"
   id="path91" />

									
										<path
   style="fill:none;stroke:#ffab2f;stroke-width:0.9235;stroke-linecap:round;stroke-linejoin:round;stroke-miterlimit:10"
   d="m 711.037,62.675 c 0,0 -0.078,-9.866 3.66,-14.275 0,0 6.291,-1.759 13.057,0.702"
   id="path92" />

									
										<path
   style="fill:none;stroke:#ffab2f;stroke-width:0.9235;stroke-linecap:round;stroke-linejoin:round;stroke-miterlimit:10"
   d="m 718.298,65.64 c 0,0 -0.05,-5.924 1.721,-9.283 0,0 5.236,0.06 8.688,1.806"
   id="path93" />

								</g>

							</g>

							<g
   id="g99">
								<path
   style="fill:#ffab2f"
   d="m 689.057,48.637 c 0,0 -9.657,-5.99 -15.625,3.194 -5.968,9.185 0.502,28.914 14.696,35.754 0,0 18.172,-11.833 18.821,-26.957 0.65,-15.124 -12.569,-15.997 -17.892,-11.991 z"
   id="path94" />

								<g
   id="g98">
									
										<path
   style="fill:none;stroke:#ea8000;stroke-width:0.9235;stroke-linecap:round;stroke-linejoin:round;stroke-miterlimit:10"
   d="m 688.981,50.212 c 0,0 1.74,14.371 -1.108,35.151"
   id="path95" />

									
										<path
   style="fill:none;stroke:#ea8000;stroke-width:0.9235;stroke-linecap:round;stroke-linejoin:round;stroke-miterlimit:10"
   d="m 674.627,61.439 c 0,0 6.294,-8.579 14.474,-10.019 0,0 10.068,1.966 15.846,9.822"
   id="path96" />

									
										<path
   style="fill:none;stroke:#ea8000;stroke-width:0.9235;stroke-linecap:round;stroke-linejoin:round;stroke-miterlimit:10"
   d="m 678.028,69.496 c 0,0 5.714,-8.399 11.461,-9.942 0,0 6.356,2.196 10.643,8.244"
   id="path97" />

									
										<path
   style="fill:none;stroke:#ea8000;stroke-width:0.9235;stroke-linecap:round;stroke-linejoin:round;stroke-miterlimit:10"
   d="m 682.438,76.26 c 0,0 3.428,-5.045 6.895,-6.851 0,0 4.397,3.118 6.298,6.618"
   id="path98" />

								</g>

							</g>

						</g>

					</g>

					<g
   id="g161">
						<g
   id="g104">
							<g
   id="g102">
								<polygon
   style="fill:#65a4c5"
   points="650.18,205.039 646.991,189.008 693.316,189.008 688.602,212.729 651.705,212.729 "
   id="polygon101" />

								<path
   style="fill:#346e94"
   d="m 693.316,189.008 -4.714,23.721 h -36.897 l -1.526,-7.691 c 20.624,-1.541 24.432,-10.818 24.93,-16.031 h 18.207 z"
   id="path101" />

							</g>

							<g
   id="g103">
								<path
   style="fill:#80aa74"
   d="m 706.9,192.408 c -3.642,7.086 -14.143,0.635 -17.164,-2.176 0,0 0.106,4.986 -4.79,5.515 -6.422,0.68 -11.649,-5.515 -11.649,-5.515 0,0 -2.085,6.24 -8.219,6.134 -6.134,-0.106 -6.134,-5.727 -6.134,-5.727 0,0 -6.769,8.114 -14.142,9.474 -7.389,1.345 -5.515,-8.219 -5.515,-8.219 0,0 -7.283,3.022 -9.156,-2.191 -1.874,-5.197 4.684,-10.395 11.649,-12.163 0,0 -5.621,-2.402 -4.684,-7.494 0.227,-1.269 1.179,-2.07 2.493,-2.553 3.898,-1.45 10.924,-0.045 10.924,-0.045 0,0 -4.775,-8.325 1.873,-11.135 6.663,-2.81 15.094,8.748 15.094,8.748 0,0 9.247,-10.516 15.91,-8.537 6.391,1.904 0.529,7.993 0.03,8.507 0.574,-0.378 10.108,-6.618 14.746,-2.992 4.775,3.747 -0.725,7.902 -0.725,7.902 0,0 6.437,-0.514 8.522,3.233 2.085,3.747 -3.022,6.452 -3.022,6.452 0,0 3.082,2.312 4.366,5.832 0.756,1.994 0.907,4.381 -0.407,6.95 z"
   id="path102" />

								<path
   style="fill:#5c8951"
   d="m 706.9,192.408 c -3.642,7.086 -14.143,0.635 -17.164,-2.176 0,0 0.106,4.986 -4.79,5.515 -6.422,0.68 -11.649,-5.515 -11.649,-5.515 0,0 -2.085,6.24 -8.219,6.134 -6.134,-0.106 -6.134,-5.727 -6.134,-5.727 0,0 -6.769,8.114 -14.142,9.474 -7.389,1.345 -5.515,-8.219 -5.515,-8.219 0,0 -7.283,3.022 -9.156,-2.191 -1.874,-5.197 4.684,-10.395 11.649,-12.163 0,0 -5.621,-2.402 -4.684,-7.494 0.227,-1.269 1.179,-2.07 2.493,-2.553 2.266,4.578 17.738,9.428 17.738,9.428 0,0 -8.779,4.034 -7.464,7.298 1.299,3.279 12.888,-4.276 12.888,-4.276 0,0 -1.269,6.799 3.264,8.189 4.533,1.375 6.044,-8.945 6.044,-8.945 0,0 7.297,9.443 12.268,9.065 4.986,-0.378 2.463,-8.688 2.463,-8.688 0,0 11.861,6.255 20.518,5.893 0.755,1.995 0.906,4.382 -0.408,6.951 z"
   id="path103" />

							</g>

						</g>

						<g
   id="g112">
							<g
   id="g110">
								<path
   style="fill:#5c8951"
   d="m 654.268,248.94 c 0,0 6.45,0.104 7.698,-0.52 1.248,-0.624 0.312,-4.786 0.728,-7.282 0.416,-2.497 5.826,-4.369 6.45,1.352 0.624,5.722 0.728,11.652 -0.728,14.564 -1.456,2.913 -14.356,2.809 -14.356,2.809 z"
   id="path104" />

								<path
   style="fill:#5c8951"
   d="m 639.392,254.766 c 0,0 -7.074,0.416 -8.843,0.104 -1.768,-0.312 -1.144,-5.202 -1.977,-6.554 -0.832,-1.352 -5.826,-2.289 -5.306,6.346 0.52,8.635 3.329,10.715 16.541,9.987 z"
   id="path105" />

								<path
   style="fill:#5c8951"
   d="m 638.872,245.611 c 0,0 -7.594,0.624 -7.698,-4.265 -0.104,-4.889 6.034,-4.889 8.114,-4.473 2.08,0.415 -0.416,8.738 -0.416,8.738 z"
   id="path106" />

								<path
   style="fill:#80aa74"
   d="m 638.143,272.139 c 0,0 -2.289,-23.925 -0.936,-38.908 1.003,-11.11 16.021,-12.276 17.789,-1.144 1.769,11.131 0,40.052 0,40.052 z"
   id="path107" />

								<g
   id="g109">
									
										<path
   style="fill:none;stroke:#5c8951;stroke-width:1.4752;stroke-linecap:round;stroke-linejoin:round;stroke-miterlimit:10"
   d="m 644.004,228.307 c -2.011,1.248 -0.763,34.157 -0.659,40.919"
   id="path108" />

									
										<path
   style="fill:none;stroke:#5c8951;stroke-width:1.4752;stroke-linecap:round;stroke-linejoin:round;stroke-miterlimit:10"
   d="m 648.72,228.307 c 2.011,1.248 0.763,34.157 0.659,40.919"
   id="path109" />

								</g>

							</g>

							<g
   id="g111">
								<rect
   x="628.12"
   y="271.03601"
   style="fill:#65a4c5"
   width="37.168999"
   height="21.077"
   id="rect110" />

								<path
   style="fill:#346e94"
   d="m 665.289,284.016 v 8.097 H 628.12 v -0.831 c 7.843,-2.861 11.733,-7.613 13.623,-11.133 1.481,-2.758 4.31,-4.521 7.441,-4.521 h 7.718 c 4.632,0.001 8.387,3.756 8.387,8.388 z"
   id="path110" />

							</g>

						</g>

						<g
   id="g134">
							<g
   id="g132">
								<path
   style="fill:#d94c6e"
   d="m 690.991,253.621 c 0,0 -9.883,-2.913 -8.323,-10.091 1.56,-7.178 12.692,-2.497 13.316,4.161 0.625,6.659 -4.993,5.93 -4.993,5.93 z"
   id="path112" />

								<path
   style="fill:#d94c6e"
   d="m 706.18,251.021 c 0,0 2.913,-10.507 8.843,-9.779 5.93,0.728 5.618,11.652 -2.081,14.876 -7.698,3.225 -6.762,-5.097 -6.762,-5.097 z"
   id="path113" />

								<path
   style="fill:#f56d8e"
   d="m 689.119,273.075 c 0,0 -2.185,-11.79 0.589,-20.668 2.774,-8.877 20.529,-9.571 23.026,1.387 2.497,10.958 -0.139,18.31 -0.139,18.31 z"
   id="path114" />

								
									<path
   style="fill:none;stroke:#d94c6e;stroke-width:1.4752;stroke-linecap:round;stroke-linejoin:round;stroke-miterlimit:10"
   d="m 695.395,249.772 c 0,0 -2.635,10.472 -0.693,20.182"
   id="path115" />

								
									<path
   style="fill:none;stroke:#d94c6e;stroke-width:1.4752;stroke-linecap:round;stroke-linejoin:round;stroke-miterlimit:10"
   d="m 701.152,249.634 c 0,0 0.208,10.958 0.208,19.905"
   id="path116" />

								
									<path
   style="fill:none;stroke:#d94c6e;stroke-width:1.4752;stroke-linecap:round;stroke-linejoin:round;stroke-miterlimit:10"
   d="m 708.018,251.506 c 0,0 1.595,10.542 -0.069,18.171"
   id="path117" />

								
									<line
   style="fill:none;stroke:#d94c6e;stroke-width:1.4752;stroke-linecap:round;stroke-linejoin:round;stroke-miterlimit:10"
   x1="683.12"
   y1="245.19501"
   x2="680.83099"
   y2="245.67999"
   id="line117" />

								
									<line
   style="fill:none;stroke:#d94c6e;stroke-width:1.4752;stroke-linecap:round;stroke-linejoin:round;stroke-miterlimit:10"
   x1="685.61603"
   y1="248.66299"
   x2="683.04999"
   y2="251.506"
   id="line118" />

								
									<line
   style="fill:none;stroke:#d94c6e;stroke-width:1.4752;stroke-linecap:round;stroke-linejoin:round;stroke-miterlimit:10"
   x1="687.14203"
   y1="241.658"
   x2="686.79498"
   y2="237.98199"
   id="line119" />

								
									<line
   style="fill:none;stroke:#d94c6e;stroke-width:1.4752;stroke-linecap:round;stroke-linejoin:round;stroke-miterlimit:10"
   x1="691.51099"
   y1="243.66901"
   x2="693.17603"
   y2="240.756"
   id="line120" />

								
									<line
   style="fill:none;stroke:#d94c6e;stroke-width:1.4752;stroke-linecap:round;stroke-linejoin:round;stroke-miterlimit:10"
   x1="708.98901"
   y1="246.582"
   x2="706.70001"
   y2="244.91701"
   id="line121" />

								
									<line
   style="fill:none;stroke:#d94c6e;stroke-width:1.4752;stroke-linecap:round;stroke-linejoin:round;stroke-miterlimit:10"
   x1="712.45599"
   y1="243.114"
   x2="710.79199"
   y2="239.092"
   id="line122" />

								
									<line
   style="fill:none;stroke:#d94c6e;stroke-width:1.4752;stroke-linecap:round;stroke-linejoin:round;stroke-miterlimit:10"
   x1="717.172"
   y1="244.224"
   x2="719.53101"
   y2="241.242"
   id="line123" />

								
									<line
   style="fill:none;stroke:#d94c6e;stroke-width:1.4752;stroke-linecap:round;stroke-linejoin:round;stroke-miterlimit:10"
   x1="716.82599"
   y1="249.356"
   x2="720.77899"
   y2="249.98"
   id="line124" />

								
									<line
   style="fill:none;stroke:#d94c6e;stroke-width:1.4752;stroke-linecap:round;stroke-linejoin:round;stroke-miterlimit:10"
   x1="714.88397"
   y1="252.338"
   x2="716.54797"
   y2="254.974"
   id="line125" />

								
									<line
   style="fill:none;stroke:#f56d8e;stroke-width:1.4752;stroke-linecap:round;stroke-linejoin:round;stroke-miterlimit:10"
   x1="698.93201"
   y1="246.78999"
   x2="698.586"
   y2="244.155"
   id="line126" />

								
									<line
   style="fill:none;stroke:#f56d8e;stroke-width:1.4752;stroke-linecap:round;stroke-linejoin:round;stroke-miterlimit:10"
   x1="702.29199"
   y1="246.132"
   x2="702.91602"
   y2="243.28799"
   id="line127" />

								
									<line
   style="fill:none;stroke:#f56d8e;stroke-width:1.4752;stroke-linecap:round;stroke-linejoin:round;stroke-miterlimit:10"
   x1="689.70801"
   y1="258.095"
   x2="686.86499"
   y2="257.95599"
   id="line128" />

								
									<line
   style="fill:none;stroke:#f56d8e;stroke-width:1.4752;stroke-linecap:round;stroke-linejoin:round;stroke-miterlimit:10"
   x1="689.91602"
   y1="266.34799"
   x2="686.31"
   y2="267.11099"
   id="line129" />

								
									<line
   style="fill:none;stroke:#f56d8e;stroke-width:1.4752;stroke-linecap:round;stroke-linejoin:round;stroke-miterlimit:10"
   x1="712.526"
   y1="267.319"
   x2="715.508"
   y2="268.082"
   id="line130" />

								
									<line
   style="fill:none;stroke:#f56d8e;stroke-width:1.4752;stroke-linecap:round;stroke-linejoin:round;stroke-miterlimit:10"
   x1="713.08099"
   y1="261.70099"
   x2="715.09198"
   y2="261.63199"
   id="line131" />

								
									<line
   style="fill:none;stroke:#f56d8e;stroke-width:1.4752;stroke-linecap:round;stroke-linejoin:round;stroke-miterlimit:10"
   x1="712.10999"
   y1="257.88699"
   x2="715.92401"
   y2="257.88699"
   id="line132" />

							</g>

							<g
   id="g133">
								<path
   style="fill:#65a4c5"
   d="m 719.743,271.625 v 3.294 c 0,9.504 -7.706,17.194 -17.195,17.194 h -3.49 c -3.52,0 -6.784,-1.058 -9.519,-2.871 -4.623,-3.082 -7.66,-8.34 -7.66,-14.323 v -3.294 z"
   id="path132" />

								<path
   style="fill:#346e94"
   d="m 719.743,274.632 v 0.287 c 0,9.504 -7.706,17.194 -17.195,17.194 h -3.49 c -3.52,0 -6.784,-1.058 -9.519,-2.871 5.026,-2.444 7.822,-5.883 9.372,-8.811 1.883,-3.557 5.551,-5.8 9.576,-5.8 h 11.256 z"
   id="path133" />

							</g>

						</g>

						<g
   id="g143">
							<g
   id="g140">
								<g
   id="g135">
									<path
   style="fill:#80aa74"
   d="m 690.754,367.949 c 0,0 -8.461,-13.316 -17.755,-24.69 -9.293,-11.374 -6.822,-19.281 -0.984,-18.726 5.839,0.555 17.629,18.587 21.513,39.809 z"
   id="path134" />

									
										<path
   style="fill:none;stroke:#5c8951;stroke-width:1.4752;stroke-linecap:round;stroke-linejoin:round;stroke-miterlimit:10"
   d="m 672.016,331.33 c 0,0 14.161,17.192 19.779,33.667"
   id="path135" />

								</g>

								<g
   id="g137">
									<path
   style="fill:#5c8951"
   d="m 690.848,367.039 c 0,0 -0.116,-18.014 -2.282,-34.641 -2.597,-19.941 5.51,-23.348 10.359,-18.732 5.769,5.492 7.133,28.428 -1.926,51.331 z"
   id="path136" />

									
										<path
   style="fill:none;stroke:#80aa74;stroke-width:1.4752;stroke-linecap:round;stroke-linejoin:round;stroke-miterlimit:10"
   d="m 694.82,320.25 c 0,0 3.331,25.207 -1.181,44.559"
   id="path137" />

								</g>

								<g
   id="g139">
									<path
   style="fill:#80aa74"
   d="m 699.004,371.536 c 0,0 8.144,-14.064 17.274,-26.125 10.95,-14.465 6.12,-20.759 0.256,-19.31 -6.976,1.724 -17.391,19.839 -20.531,41.836 z"
   id="path138" />

									
										<path
   style="fill:none;stroke:#5c8951;stroke-width:1.4752;stroke-linecap:round;stroke-linejoin:round;stroke-miterlimit:10"
   d="m 716.809,333.095 c 0,0 -13.879,18.264 -18.994,35.445"
   id="path139" />

								</g>

							</g>

							<g
   id="g142">
								<g
   id="g141">
									<rect
   x="681.80298"
   y="362.961"
   style="fill:#65a4c5"
   width="25.941999"
   height="46.310001"
   id="rect140" />

									<path
   style="fill:#346e94"
   d="m 707.746,375.786 v 33.486 h -25.943 v -7.509 c 10.328,-7.762 13.813,-20.23 14.971,-26.915 0.459,-2.653 2.753,-4.588 5.445,-4.588 v 0 c 3.052,-10e-4 5.527,2.473 5.527,5.526 z"
   id="path140" />

								</g>

								<rect
   x="681.80798"
   y="362.95499"
   style="fill:#b23d56"
   width="25.938"
   height="4.0840001"
   id="rect141" />

								<rect
   x="681.80798"
   y="405.194"
   style="fill:#b23d56"
   width="25.938"
   height="4.0840001"
   id="rect142" />

							</g>

						</g>

						<rect
   x="602.66901"
   y="144.336"
   style="fill:#65a4c5"
   width="8.5089998"
   height="273.452"
   id="rect143" />

						<rect
   x="724.177"
   y="144.336"
   style="fill:#65a4c5"
   width="8.5089998"
   height="273.452"
   id="rect144" />

						<g
   id="g148">
							
								<rect
   x="663.42297"
   y="83.582001"
   transform="rotate(-90,667.6777,148.5905)"
   style="fill:#0c1a3c"
   width="8.5089998"
   height="130.01801"
   id="rect145" />

							<rect
   x="602.66901"
   y="212.73399"
   style="fill:#0c1a3c"
   width="130.01801"
   height="8.5089998"
   id="rect146" />

							<rect
   x="602.66901"
   y="292.11301"
   style="fill:#0c1a3c"
   width="130.01801"
   height="8.5089998"
   id="rect147" />

							
								<rect
   x="663.42297"
   y="348.52399"
   transform="rotate(-90,667.6777,413.533)"
   style="fill:#0c1a3c"
   width="8.5100002"
   height="130.01801"
   id="rect148" />

						</g>

						<g
   id="g160">
							<g
   id="g149">
								<polygon
   style="fill:#65a4c5"
   points="669.414,385.519 667.117,391.472 660.257,409.271 634.179,409.271 632.139,403.968 625.022,385.519 "
   id="polygon148" />

								<path
   style="fill:#346e94"
   d="m 662.793,402.692 -2.536,6.579 h -26.079 l -2.04,-5.303 c 7.511,-1.053 11.096,-4.983 12.789,-8.158 1.447,-2.715 4.348,-4.338 7.424,-4.338 h 2.742 c 5.794,0 9.783,5.814 7.7,11.22 z"
   id="path148" />

							</g>

							<g
   id="g159">
								<g
   id="g150">
									<path
   style="fill:#0c1a3c"
   d="m 646.848,388.189 c 0,0 9.649,-0.715 19.595,0.842 9.946,1.557 18.926,-2.129 18.926,-2.129 0,0 -2.728,-10 -16.57,-10.704 -13.841,-0.705 -21.951,11.991 -21.951,11.991 z"
   id="path149" />

									
										<path
   style="fill:none;stroke:#346e94;stroke-width:1.4752;stroke-linecap:round;stroke-linejoin:round;stroke-miterlimit:10"
   d="m 650.112,387.285 c 0,0 15.588,-9.467 30.528,-1.965"
   id="path150" />

								</g>

								<g
   id="g152">
									<path
   style="fill:#0c1a3c"
   d="m 646.336,387.083 c 0,0 -14.803,-8.349 -19.566,-15.253 -4.762,-6.904 -2.18,-18.295 -2.18,-18.295 0,0 12.155,5.441 15.779,13.695 3.625,8.255 5.967,19.853 5.967,19.853 z"
   id="path151" />

									
										<path
   style="fill:none;stroke:#346e94;stroke-width:1.4752;stroke-linecap:round;stroke-linejoin:round;stroke-miterlimit:10"
   d="m 626.817,357.628 c 0,0 12.809,14.365 18.524,28.809"
   id="path152" />

								</g>

								<g
   id="g154">
									<path
   style="fill:#346e94"
   d="m 646.407,387.913 c 0,0 -8.412,1.758 -16.733,0.899 -8.321,-0.86 -15.205,-5.704 -15.205,-5.704 0,0 6.016,-9.072 15.493,-9.354 9.476,-0.284 14.421,7.544 16.445,14.159 z"
   id="path153" />

									
										<path
   style="fill:none;stroke:#65a4c5;stroke-width:1.4752;stroke-linecap:round;stroke-linejoin:round;stroke-miterlimit:10"
   d="m 621.844,381.437 c 0,0 13.798,-4.721 24.563,6.476"
   id="path154" />

								</g>

								<g
   id="g156">
									<path
   style="fill:#0c1a3c"
   d="m 653.175,345.889 c 0,0 -10.577,9.459 -12.088,21.177 -1.511,11.717 5.761,21.123 5.761,21.123 0,0 8.861,-7.539 11.708,-15.819 2.846,-8.282 -1.52,-21.588 -5.381,-26.481 z"
   id="path155" />

									
										<path
   style="fill:none;stroke:#65a4c5;stroke-width:1.4752;stroke-linecap:round;stroke-linejoin:round;stroke-miterlimit:10"
   d="m 651.776,351.542 c 0,0 -3.479,18.044 -4.619,35.368"
   id="path156" />

								</g>

								<g
   id="g158">
									<path
   style="fill:#346e94"
   d="m 646.848,388.189 c 0,0 2.477,-12.635 10.692,-19.179 8.215,-6.544 21.633,0.252 21.633,0.252 0,0 -7.647,4.617 -12.604,11.406 -4.958,6.789 -19.721,7.521 -19.721,7.521 z"
   id="path157" />

									
										<path
   style="fill:none;stroke:#65a4c5;stroke-width:1.4752;stroke-linecap:round;stroke-linejoin:round;stroke-miterlimit:10"
   d="m 674.206,369.788 c 0,0 -16.34,-1.849 -27.358,18.401"
   id="path158" />

								</g>

							</g>

						</g>

					</g>

				</g>

			</g>

		</g>

		<g
   id="g266">
			<g
   id="g219">
				<g
   id="g175">
					<g
   id="g169">
						<g
   id="g167">
							<polygon
   style="fill:#ff8b61"
   points="413.458,409.545 413.342,397.123 399.294,397.239 399.875,409.893 "
   id="polygon164" />

							<path
   style="opacity:0.5;fill:#f9591a"
   d="m 413.342,397.123 -14.048,0.116 0.285,6.22 c 5.388,-0.25 10.143,-1.5 13.795,-2.838 z"
   id="path164" />

							<g
   id="g166">
								<path
   style="fill:#0c1a3c"
   d="m 437.373,424.521 h -38.769 c -0.524,0 -0.953,-0.415 -0.964,-0.94 -0.013,-0.637 -0.021,-1.572 0.001,-2.724 0.062,-2.972 0.322,-7.373 1.181,-11.758 0.174,-0.888 1.007,-1.484 1.901,-1.341 2.778,0.443 8.645,0.906 12.157,-2.222 0.586,-0.522 1.432,-0.616 2.079,-0.172 3.436,2.362 13.77,9.192 20.618,10.798 1.909,0.446 2.564,2.661 2.745,4.695 0.093,1.061 0.061,2.076 0.014,2.767 -0.035,0.507 -0.454,0.897 -0.963,0.897 z"
   id="path165" />

								<path
   style="fill:#5c8951"
   d="m 437.373,424.521 h -38.769 c -0.524,0 -0.953,-0.415 -0.964,-0.94 -0.013,-0.637 -0.021,-1.572 0.001,-2.724 h 40.68 c 0.093,1.061 0.061,2.076 0.014,2.767 -0.034,0.507 -0.453,0.897 -0.962,0.897 z"
   id="path166" />

							</g>

						</g>

						<g
   id="g168">
							<path
   style="fill:#346e94"
   d="m 421.004,397.007 c 0,0 -2.536,1.7 -10.463,1.783 -3.427,0.028 -7.871,-0.237 -13.569,-1.087 0,0 -9.752,-87.072 -18.459,-127.473 v -27.515 l 40.053,2.786 c 0,0 0.125,4.778 0.306,12.831 0.669,27.919 2.132,95.152 2.132,138.675 z"
   id="path167" />

							<path
   style="opacity:0.3;fill:#326c92"
   d="m 410.542,398.79 c -3.427,0.028 -7.871,-0.237 -13.569,-1.087 0,0 -9.752,-87.072 -18.459,-127.473 v -27.515 l 40.053,2.786 c 0,0 0.125,4.778 0.306,12.831 -6.478,1.853 -13.932,4.416 -15.979,6.896 -3.4,4.138 4.457,107.19 7.648,133.562 z"
   id="path168" />

						</g>

					</g>

					<g
   id="g174">
						<g
   id="g172">
							<polygon
   style="fill:#ff8b61"
   points="360.344,409.545 361.621,397.123 347.573,397.239 346.761,409.893 "
   id="polygon169" />

							<path
   style="opacity:0.5;fill:#f9591a"
   d="m 347.088,404.793 c 5.169,0.095 10.085,-1.042 13.987,-2.358 l 0.546,-5.313 -14.048,0.116 z"
   id="path169" />

							<g
   id="g171">
								<path
   style="fill:#0c1a3c"
   d="M 383.759,424.521 H 346.01 c -0.819,0 -1.483,-0.656 -1.492,-1.475 -0.007,-0.585 -0.007,-1.326 0.009,-2.189 0.063,-3.03 0.332,-7.548 1.233,-12.018 0.153,-0.76 0.89,-1.253 1.656,-1.132 2.889,0.457 9.69,1.087 13.404,-2.25 0.529,-0.475 1.3,-0.551 1.872,-0.129 3.151,2.327 12.887,9.22 19.771,10.834 1.909,0.446 2.564,2.661 2.744,4.695 0.072,0.819 0.069,1.609 0.043,2.245 -0.033,0.798 -0.694,1.419 -1.491,1.419 z"
   id="path170" />

								<path
   style="fill:#5c8951"
   d="M 383.759,424.521 H 346.01 c -0.819,0 -1.483,-0.656 -1.492,-1.475 -0.007,-0.585 -0.007,-1.326 0.009,-2.189 h 40.68 c 0.072,0.819 0.069,1.609 0.043,2.245 -0.033,0.798 -0.694,1.419 -1.491,1.419 z"
   id="path171" />

							</g>

						</g>

						
							<path
   style="fill:none;stroke:#326c92;stroke-width:1.4752;stroke-linecap:round;stroke-linejoin:round;stroke-miterlimit:10"
   d="m 392.271,241.496 c 0,0 -1.916,27.719 -2.264,29.112 -0.348,1.393 -6.792,2.774 -6.792,2.774 l 4.005,-31.886 z"
   id="path172" />

						<path
   style="fill:#346e94"
   d="m 388.265,242.018 -1.658,13.862 -17.15,142.868 c 0,0 -7.662,0.836 -15.687,0.836 -4.653,0 -9.418,-0.293 -12.873,-1.184 0.697,-53.873 4.876,-118.878 12.775,-155.573 z"
   id="path173" />

						<path
   style="opacity:0.3;fill:#326c92"
   d="m 388.265,242.018 -1.658,13.862 c -5.809,1.073 -11.605,2.173 -16.969,3.204 -11.563,2.215 -14.962,100.962 -15.868,140.5 -4.653,0 -9.418,-0.293 -12.873,-1.184 0.697,-53.873 4.876,-118.878 12.775,-155.573 z"
   id="path174" />

					</g>

				</g>

				<g
   id="g181">
					<path
   style="fill:#0c1a3c"
   d="m 353.959,231.395 c 0,0 -1.916,13.409 -1.916,14.28 0,0.871 21.946,4.382 35.003,4.702 14.193,0.348 33.349,-3.657 33.349,-3.657 l -1.48,-13.583 z"
   id="path175" />

					<g
   id="g180">
						<path
   style="fill:#346e94"
   d="m 385.783,234.473 c -0.505,-0.006 -0.919,0.398 -0.926,0.903 l -0.189,14.913 c 0.626,0.03 1.233,0.053 1.828,0.071 l 0.19,-14.962 c 0.005,-0.505 -0.399,-0.919 -0.903,-0.925 z"
   id="path176" />

						<path
   style="fill:#346e94"
   d="m 400.984,235.557 c -0.002,-0.505 -0.413,-0.913 -0.918,-0.911 -0.505,0.002 -0.913,0.413 -0.911,0.918 l 0.057,14.301 c 0.612,-0.057 1.223,-0.115 1.828,-0.178 z"
   id="path177" />

						<path
   style="fill:#346e94"
   d="m 359.947,232.314 c -0.501,-0.059 -0.956,0.3 -1.015,0.801 l -1.672,13.922 c 0.566,0.104 1.169,0.211 1.803,0.32 l 1.685,-14.029 c 0.06,-0.501 -0.299,-0.956 -0.801,-1.014 z"
   id="path178" />

						<path
   style="fill:#346e94"
   d="m 413.811,234.413 c -0.031,-0.504 -0.465,-0.887 -0.969,-0.856 -0.504,0.031 -0.887,0.465 -0.856,0.969 l 0.861,13.565 c 0.634,-0.104 1.242,-0.205 1.813,-0.303 z"
   id="path179" />

						<path
   style="fill:#346e94"
   d="m 372.574,233.684 c -0.503,-0.042 -0.945,0.332 -0.987,0.835 l -1.239,14.474 c 0.602,0.074 1.208,0.145 1.817,0.216 l 1.244,-14.537 c 0.042,-0.505 -0.331,-0.946 -0.835,-0.988 z"
   id="path180" />

					</g>

				</g>

				<g
   id="g186">
					<g
   id="g183">
						<path
   style="fill:#346e94"
   d="m 403.507,74.91 c 0,0 -4.188,-7.191 -7.839,-10.73 -3.651,-3.538 -11.998,-3.203 -17.581,-0.963 -6.496,2.606 -11.28,8.437 -11.316,12.254 -0.035,3.818 2.567,14.77 2.567,14.77 z"
   id="path181" />

						<path
   style="opacity:0.3;fill:#326c92"
   d="m 376.975,73.32 c 0.033,-3.605 4.303,-9.002 10.248,-11.786 -3.132,-0.022 -6.452,0.607 -9.136,1.684 -6.496,2.606 -11.28,8.437 -11.316,12.254 -0.035,3.818 2.567,14.77 2.567,14.77 l 9.701,-4.353 c -0.753,-3.401 -2.089,-9.827 -2.064,-12.569 z"
   id="path182" />

						<path
   style="fill:#0c1a3c"
   d="m 358.582,98.17 c -2.306,-0.59 -3.201,-3.408 -1.682,-5.24 4.024,-4.853 12.709,-13.524 26.455,-18.309 13.823,-4.812 26.699,-3.334 33.211,-2.004 2.32,0.474 3.262,3.306 1.674,5.062 -3.507,3.879 -11.16,10.093 -27.259,16.207 -16.769,6.368 -27.123,5.634 -32.399,4.284 z"
   id="path183" />

					</g>

					<path
   style="fill:#cb1c3e"
   d="m 398.978,163.305 c -24.561,1.574 -52.076,-3.051 -51.978,-18.626 0.049,-9.106 3.72,-14.913 6.764,-18.168 1.648,-1.762 1.646,-4.414 0.133,-6.294 -1.621,-2.015 -2.6,-5.108 -0.03,-9.419 4.821,-8.074 11.933,-15.707 12.799,-16.626 0.058,-0.061 0.112,-0.125 0.164,-0.191 0.56,-0.715 4.154,-5.186 9.773,-9.528 0.014,0 0.014,0 0.028,-0.014 2.424,-1.379 5.169,-2.758 8.192,-3.984 1.616,-0.669 3.302,-1.282 5.071,-1.825 0.167,-0.056 0.321,-0.111 0.488,-0.153 3.016,-0.917 6.233,-1.648 9.635,-2.078 4.268,-0.539 8.612,1.262 10.826,4.951 2.059,3.431 2.225,7.43 2.156,9.406 -0.025,0.705 0.249,1.377 0.732,1.891 0.878,0.934 1.967,2.968 0.572,6.755 -1.56,4.207 -7.551,7.941 -10.518,9.585 l -0.03,0.017 c -1.043,0.571 -1.577,1.759 -1.32,2.919 0.021,0.096 0.044,0.195 0.069,0.297 0.641,2.661 2.257,6.826 6.311,8.596 3.777,1.65 3.949,4.334 3.51,6.174 -0.284,1.193 0.237,2.429 1.327,2.993 2.905,1.502 7.881,4.68 9.095,9.292 1.74,6.616 0.779,22.456 -23.769,24.03 z"
   id="path184" />

					<path
   style="opacity:0.3;fill:#326c92"
   d="m 404.424,162.666 c 13.719,-2.432 16.708,-20.685 4.71,-27.767 -2.223,-1.312 -3.571,-2.468 -2.634,-4.033 3,-5.009 -4.375,-8.491 -7.25,-16.991 l -9.25,-5.125 -1.591,54.832 c 3.524,0.041 7.076,-0.053 10.569,-0.277 1.963,-0.126 3.775,-0.343 5.446,-0.639 z"
   id="path185" />

					<path
   style="opacity:0.3;fill:#326c92"
   d="m 389.261,112.566 -7.743,-3.037 -5.344,-9.093 c -2.377,2.935 -5.12,6.6 -7.365,10.361 -2.105,3.53 -1.83,6.244 -0.771,8.217 1.555,2.9 1.355,6.472 -0.674,9.063 -2.685,3.429 -5.381,8.807 -5.423,16.601 -0.058,9.313 9.759,14.706 22.909,17.204 z"
   id="path186" />

				</g>

				<g
   id="g197">
					<g
   id="g192">
						<g
   id="g188">
							<path
   style="fill:#ff8b61"
   d="m 479.865,164.81 c 0,0 -30.189,35.651 -30.538,35.999 -0.251,0 -0.641,-12.956 -0.864,-21.343 -0.111,-4.026 -0.181,-6.994 -0.181,-6.994 l 24.965,-15.673 4.792,3.372 z"
   id="path187" />

							<path
   style="opacity:0.5;fill:#f9591a"
   d="m 479.865,164.81 c 0,0 -30.189,35.651 -30.538,35.999 -0.251,0 -0.641,-12.956 -0.864,-21.343 l 28.267,-18.445 z"
   id="path188" />

						</g>

						<g
   id="g191">
							<path
   style="fill:#ff8b61"
   d="m 503.284,143.188 c -0.432,3.399 -11.313,15.325 -13.583,17.247 -2.257,1.909 -9.836,4.375 -9.836,4.375 L 476.73,161.021 473.247,156.8 483,146.072 c 0,0 9.056,-12.803 12.622,-14.628 3.483,-1.797 -2.564,7.941 -2.856,8.428 0.334,-0.418 5.615,-7.035 7.119,-7.035 1.114,0 2.591,3.538 3.19,6.785 0.237,1.323 0.334,2.591 0.209,3.566 z"
   id="path189" />

							<path
   style="opacity:0.5;fill:#f9591a"
   d="m 482.451,146.675 0.675,4.827 c 0.078,0.56 0.762,0.789 1.157,0.385 1.809,-1.852 5.491,-6.399 5.381,-12.641 -0.011,-0.63 -0.822,-0.895 -1.215,-0.403 -2.915,3.646 -5.45,7.229 -5.45,7.229 z"
   id="path190" />

							<path
   style="opacity:0.5;fill:#f9591a"
   d="m 503.284,143.188 c -0.432,3.399 -11.313,15.325 -13.583,17.247 -2.257,1.909 -9.836,4.375 -9.836,4.375 l -3.135,-3.789 1.309,-0.85 c 0,0 8.206,-1.505 13.779,-5.921 4.11,-3.26 8.972,-10.867 11.256,-14.628 0.238,1.323 0.335,2.591 0.21,3.566 z"
   id="path191" />

						</g>

						<path
   style="fill:#ff8b61"
   d="m 473.248,156.804 c 0,0 1.045,-8.591 1.858,-9.984 0.813,-1.393 6.588,-7.982 8.765,-10.681 2.177,-2.699 3.309,1.742 1.916,4.702 -1.393,2.96 0.348,7.14 -1.654,10.884 -2.004,3.744 -10.885,5.079 -10.885,5.079 z"
   id="path192" />

					</g>

					<g
   id="g196">
						<g
   id="g194">
							<path
   style="fill:#80aa74"
   d="m 443.183,173.169 c 0,0 -0.125,1.184 -0.32,3.065 -0.794,7.481 -2.772,26.08 -3.051,26.54 -0.348,0.585 -16.606,-10.797 -25.425,-20.549 -8.707,-9.627 -20.939,-33.631 -5.921,-42.366 0.195,-0.139 0.39,-0.237 0.585,-0.348 0,-0.001 31.806,31.693 34.132,33.658 z"
   id="path193" />

							<path
   style="opacity:0.3;fill:#5c8951"
   d="m 442.863,176.234 c -0.794,7.481 -2.772,26.08 -3.051,26.54 -0.348,0.585 -16.606,-10.797 -25.425,-20.549 -8.707,-9.627 -20.939,-33.631 -5.921,-42.366 0.237,10.183 13.305,26.65 34.397,36.375 z"
   id="path194" />

						</g>

						<path
   style="fill:#80aa74"
   d="m 441.669,170.155 c 0,0 -6.269,29.372 -6.269,31.81 0,2.438 6.269,4.063 9.868,3.715 3.599,-0.348 5.34,-2.322 5.805,-3.599 0.464,-1.277 -1.625,-29.488 -2.438,-30.882 -0.812,-1.392 -6.385,-1.509 -6.966,-1.044 z"
   id="path195" />

						<path
   style="opacity:0.3;fill:#5c8951"
   d="m 442.106,180.876 c -1.278,6.066 -3.593,17.173 -4.719,23.328 2.145,1.103 5.564,1.701 7.882,1.477 3.599,-0.348 5.341,-2.322 5.805,-3.599 0.337,-0.928 -0.674,-16.079 -1.564,-24.826 -0.197,-0.123 -0.438,-0.231 -0.71,-0.325 -2.925,-1.014 -6.057,0.917 -6.694,3.945 z"
   id="path196" />

					</g>

				</g>

				<g
   id="g198">
					<path
   style="fill:#5c8951"
   d="m 395.579,240.165 c -20.786,0.697 -38.131,-2.675 -42.31,-7.899 -4.179,-5.224 -1.393,-5.392 0.697,-34.648 2.09,-29.256 11.577,-54.946 11.577,-54.946 0,0 1.087,-0.808 3.065,-1.964 3.748,-2.187 10.727,-5.601 19.657,-7.008 8.819,-1.393 20.786,5.809 20.786,5.809 0,0 10.56,14.976 12.887,25.773 2.313,10.797 -4.528,20.549 -4.528,20.549 -0.376,6.311 0.139,12.399 1.017,17.972 1.532,9.877 4.193,18.097 5.015,23.001 1.282,7.663 -7.077,12.665 -27.863,13.361 z"
   id="path197" />

					<path
   style="opacity:0.3;fill:#5c8951"
   d="m 395.579,240.165 c -20.786,0.697 -38.131,-2.675 -42.31,-7.899 -4.179,-5.224 -1.393,-5.392 0.697,-34.648 2.09,-29.256 11.577,-54.946 11.577,-54.946 0,0 1.087,-0.808 3.065,-1.964 0.724,0.571 1.463,1.254 2.243,2.048 0,0 5.809,22.458 5.809,42.227 0,19.769 23.656,17.707 36.612,17.818 1.7,0.014 3.441,0.362 5.155,1.003 1.532,9.877 4.193,18.097 5.015,23.001 1.282,7.662 -7.077,12.664 -27.863,13.36 z"
   id="path198" />

				</g>

				<g
   id="g207">
					<g
   id="g204">
						<g
   id="g200">
							<g
   id="g199">
								<path
   style="fill:#0c1a3c"
   d="m 418.176,190.123 c -3.929,0 -7.091,3.176 -7.091,7.091 v 19.504 c 0,3.929 3.162,7.105 7.091,7.105 h 8.359 c 2.48,0 4.653,-1.268 5.921,-3.19 0.738,-1.128 1.17,-2.466 1.17,-3.915 v -26.595 z m -2.925,7.091 c 0.014,-1.602 1.31,-2.912 2.926,-2.912 h 11.271 v 22.416 c 0,1.616 -1.31,2.926 -2.912,2.926 h -8.359 c -0.571,0 -1.101,-0.153 -1.546,-0.446 -0.822,-0.515 -1.365,-1.435 -1.379,-2.48 v -19.504 z"
   id="path199" />

							</g>

							<path
   style="opacity:0.3;fill:#326c92"
   d="m 432.456,220.633 c -1.268,1.923 -3.441,3.19 -5.921,3.19 h -8.359 c -3.929,0 -7.091,-3.176 -7.091,-7.105 v -1.936 c 1.769,-1.101 3.344,-1.95 4.165,-2.396 v 4.333 c 0.014,1.045 0.557,1.964 1.379,2.48 l -1.379,1.142 c 10e-4,0 4.459,1.783 17.206,0.292 z"
   id="path200" />

						</g>

						<path
   style="opacity:0.3;fill:#326c92"
   d="m 433.626,193.857 v 11.326 l -4.18,3.051 v -13.932 h -11.271 c -1.616,0 -2.912,1.31 -2.926,2.912 v 10.505 l -1.365,-10.825 c -0.321,-2.577 1.686,-4.848 4.277,-4.848 h 13.904 z"
   id="path201" />

						<g
   id="g203">
							<path
   style="fill:#ffab2f"
   d="m 454.008,224.952 h -0.181 c 0,0.098 -0.098,0.195 -0.293,0.279 -1.379,0.641 -7.314,1.115 -14.419,1.115 -8.122,0 -14.712,-0.627 -14.712,-1.393 l 3.302,-39.969 h 22.987 z"
   id="path202" />

							<path
   style="opacity:0.3;fill:#326c92"
   d="m 453.534,225.231 c -1.379,0.641 -7.314,1.115 -14.419,1.115 -8.122,0 -14.712,-0.627 -14.712,-1.393 l 3.302,-39.969 h 1.309 c -1.169,5.947 6.27,30.077 24.52,40.247 z"
   id="path203" />

						</g>

						<ellipse
   style="fill:#0c1a3c"
   cx="439.11499"
   cy="184.98599"
   rx="11.406"
   ry="1.08"
   id="ellipse203" />

					</g>

					<g
   id="g206">
						<g
   id="g205">
							<path
   style="fill:#ffab2f"
   d="m 473.861,190.04 -20.647,33.171 c -1.212,-1.588 -2.118,-3.274 -2.508,-5.127 -0.446,-2.09 -0.237,-4.389 0.947,-6.98 l 18.278,-22.458 1.769,0.627 z"
   id="path204" />

							<path
   style="opacity:0.3;fill:#326c92"
   d="m 473.861,190.04 -20.647,33.171 c -0.012,-0.016 -0.024,-0.032 -0.036,-0.048 -1.888,-2.489 -1.837,-5.95 0.003,-8.474 l 18.521,-25.415 z"
   id="path205" />

						</g>

						<polygon
   style="fill:#ffab2f"
   points="478.036,188.904 473.857,190.036 469.939,188.643 469.794,186.118 "
   id="polygon205" />

						<path
   style="fill:#0c1a3c"
   d="m 469.794,186.118 c 0,0 2.67,3.019 8.243,2.786 -10e-4,0 -3.309,-3.366 -8.243,-2.786 z"
   id="path206" />

					</g>

				</g>

				<g
   id="g213">
					<g
   id="g208">
						<path
   style="fill:#80aa74"
   d="m 378.402,158.54 c -2.09,10.686 -10.574,33.087 -14.405,46.099 -0.822,2.758 -2.271,5.224 -4.11,7.314 -6.785,7.774 -18.738,10.31 -22.123,2.898 -4.04,-8.86 -0.153,-22.987 6.227,-38.2 0.39,-0.92 0.794,-1.853 1.198,-2.786 7.091,-16.244 15.241,-33.101 25.662,-32.795 3.942,0.126 9.64,6.799 7.551,17.47 z"
   id="path207" />

						<path
   style="opacity:0.3;fill:#5c8951"
   d="m 359.887,211.954 c -6.785,7.774 -18.738,10.31 -22.123,2.898 -4.04,-8.86 -0.153,-22.987 6.227,-38.2 0.348,13.443 5.196,28.267 15.896,35.302 z"
   id="path208" />

					</g>

					<path
   style="fill:#80aa74"
   d="m 341.595,221.556 c 0,0 -7.401,-2.525 -7.401,-13.235 0,0 1.045,-6.879 8.707,-11.842 7.662,-4.963 18.982,-3.57 21.159,-2.699 2.177,0.871 5.398,4.876 5.573,8.968 0.173,4.093 -9.231,19.94 -28.038,18.808 z"
   id="path209" />

					<path
   style="opacity:0.3;fill:#5c8951"
   d="m 363.247,197.01 c -2.177,-0.871 -13.496,-2.264 -21.159,2.699 -1.297,0.84 -2.404,1.735 -3.348,2.641 -4.514,4.335 -5.259,11.445 -1.19,16.2 1.956,2.285 4.044,3.005 4.044,3.005 15.465,0.931 24.565,-9.614 27.217,-15.668 -0.216,-4.06 -3.403,-8.013 -5.564,-8.877 z"
   id="path210" />

					<g
   id="g212">
						<path
   style="fill:#ff8b61"
   d="m 421.269,210.854 c -0.265,1.909 -4.36,7.662 -7.495,8.359 -3.135,0.697 -12.009,0.947 -12.009,0.947 0,0 -22.82,3.483 -37.448,3.483 -14.628,0 -22.458,-4.876 -22.458,-4.876 1.477,-5.726 4.04,-9.599 6.924,-12.19 3.958,-3.572 8.523,-4.774 11.741,-5.145 2.229,-0.257 4.472,0.209 6.425,1.315 15.303,8.673 34.608,6.881 34.608,6.881 0,0 3.664,-9.111 4.528,-10.045 0.474,-0.502 2.354,-0.432 4.096,-0.112 1.087,-1.142 1.936,-1.95 2.299,-2.034 1.449,-0.348 6.325,0.348 7.021,1.045 0.697,0.697 -0.056,4.18 0.404,5.461 0.279,0.78 0.836,2.48 1.156,4.11 0.194,1.031 0.305,2.048 0.208,2.801 z"
   id="path211" />

						<path
   style="opacity:0.5;fill:#f9591a"
   d="m 421.269,210.854 c -0.265,1.909 -4.36,7.662 -7.495,8.359 -3.135,0.697 -12.009,0.947 -12.009,0.947 0,0 -22.82,3.483 -37.448,3.483 -14.628,0 -22.458,-4.876 -22.458,-4.876 1.477,-5.726 4.04,-9.599 6.924,-12.19 9.919,2.633 39.287,9.989 53.999,9.209 9.279,-0.501 14.962,-4.249 18.278,-7.732 0.195,1.03 0.306,2.047 0.209,2.8 z"
   id="path212" />

					</g>

				</g>

				<g
   id="g214">
					<path
   style="fill:#ff8b61"
   d="m 396.332,136.194 c 0,0 -0.752,2.842 -6.325,2.912 -5.573,0.056 -9.056,-2.786 -9.056,-2.786 0,0 1.839,-11.41 2.229,-19.574 0.07,-1.546 0.097,-2.967 0.042,-4.18 l 12.121,4.528 c 0,0 -1.087,5.601 -0.195,12.914 0.236,1.965 0.612,4.055 1.184,6.186 z"
   id="path213" />

					<path
   style="fill:#f9591a"
   d="m 395.147,130.009 c -6.631,-3.009 -10.184,-8.958 -11.967,-13.263 0.07,-1.546 0.097,-2.967 0.042,-4.18 l 12.121,4.528 c -0.001,0 -1.087,5.601 -0.196,12.915 z"
   id="path214" />

				</g>

				<g
   id="g218">
					<g
   id="g216">
						<path
   style="fill:#ff8b61"
   d="m 404.983,102.968 c -0.265,2.341 -0.669,4.319 -1.198,6.019 -0.376,1.226 -0.808,2.299 -1.282,3.232 -3.204,6.423 -8.052,6.423 -8.052,6.423 0,0 -0.418,-0.028 -1.114,-0.139 -3.344,-0.571 -13.193,-3.204 -13.695,-14.753 -0.028,-0.557 -0.042,-1.101 -0.056,-1.644 -0.348,-11.563 1.198,-18.821 5.238,-21.65 0.891,-0.362 1.797,-0.725 2.744,-1.045 0.752,-0.279 1.533,-0.543 2.327,-0.78 0.167,-0.056 0.321,-0.111 0.488,-0.153 11.953,-2.078 16.174,10.307 14.6,24.49 z"
   id="path215" />

						<path
   style="opacity:0.5;fill:#f9591a"
   d="m 393.336,118.501 c -3.344,-0.571 -13.193,-3.204 -13.695,-14.753 -0.028,-0.557 -0.042,-1.101 -0.056,-1.644 -0.348,-11.563 1.198,-18.821 5.238,-21.65 0.891,-0.362 1.797,-0.725 2.744,-1.045 -1.642,9.864 -3.676,30.371 5.769,39.092 z"
   id="path216" />

					</g>

					<path
   style="fill:#cb1c3e"
   d="m 386.273,92.714 -1.821,7.642 c -0.217,0.911 -1.011,1.569 -1.947,1.612 l -2.92,0.136 -0.738,0.028 c 0,0 -4.11,-3.455 -3.232,-13.722 0.126,-1.491 0.488,-2.814 1.017,-3.971 2.424,-1.379 5.169,-2.758 8.192,-3.984 1.616,-0.669 3.302,-1.282 5.071,-1.825 0.167,0.112 0.307,0.279 0.404,0.446 0,-10e-4 2.355,8.247 -4.026,13.638 z"
   id="path217" />

					<path
   style="fill:#ff8b61"
   d="m 380.777,101.89 c 0,0 -1.335,-5.921 -5.863,-3.599 -4.408,2.261 -1.278,13.435 6.604,11.238 0.376,-0.105 0.598,-0.497 0.526,-0.88 z"
   id="path218" />

				</g>

			</g>

			<g
   id="g265">
				<g
   id="g223">
					<path
   style="fill:#5c8951"
   d="m 565.878,294.124 c -10.275,-2.232 -15.685,9.359 -20.683,20.404 -4.998,11.045 -11.466,20.702 -11.466,20.702 l -34.213,-12.676 -10.108,19.354 c 0,0 36.076,26.286 50.687,24.021 14.611,-2.265 26.86,-28.325 31.045,-46.663 4.184,-18.338 -0.115,-24.024 -5.262,-25.142 z"
   id="path219" />

					<path
   style="opacity:0.3;fill:#5c8951"
   d="m 571.139,300.214 c -4.185,18.338 -16.433,44.398 -31.044,46.663 -10.491,1.627 -32.047,-11.466 -43.37,-18.979 l -7.317,14.011 c 0,0 36.076,26.286 50.687,24.021 14.611,-2.265 26.859,-28.325 31.044,-46.663 2.379,-10.423 2.015,-16.755 0.314,-20.488 -0.1,0.471 -0.202,0.946 -0.314,1.435 z"
   id="path220" />

					<g
   id="g222">
						<path
   style="fill:#ffab2f"
   d="m 509.197,324.913 -3.972,7.764 -8.877,17.363 -21.425,-24.254 c 0,0 -8.832,-2.106 -11.36,-3.687 -2.513,-1.579 -4.755,-7.282 -4.484,-8.636 0.015,-0.06 0.03,-0.151 0.075,-0.271 0.722,-2.317 6.033,-14.324 6.078,-14.489 0.045,-0.181 0.03,-3.024 1.61,-4.258 1.595,-1.219 5.402,0.918 7.959,3.085 2.573,2.182 4.108,3.189 4.108,3.189 0,0 -0.331,-2.512 0.707,-5.446 1.023,-2.904 3.16,4.002 3.16,4.002 l 3.31,14.294 z"
   id="path221" />

						<path
   style="opacity:0.3;fill:#326c92"
   d="m 505.225,332.677 -8.877,17.363 -21.425,-24.254 c 0,0 -8.832,-2.106 -11.36,-3.687 -2.513,-1.579 -4.755,-7.282 -4.484,-8.636 0.015,-0.06 0.03,-0.151 0.075,-0.271 5.27,3.222 10.514,0.862 13.333,-0.981 1.202,-0.786 2.802,-0.516 3.653,0.64 3.462,4.7 12.865,15.443 29.085,19.826 z"
   id="path222" />

					</g>

				</g>

				<g
   id="g252">
					<g
   id="g240">
						<g
   id="g225">
							<g
   id="g224">
								<path
   style="fill:#0c1a3c"
   d="m 591.541,473.466 c 0,0 -1.87,0.904 -3.734,0.892 -0.888,0.015 -1.758,-0.2 -2.436,-0.801 -2.122,-1.873 -28.562,-13.624 -40.735,-15.333 l -0.94,-23.887 c 0,0 3.013,-5.879 12.583,-11.423 0.978,-0.567 2.016,-1.113 3.135,-1.668 0,0.001 20.664,18.577 32.127,52.22 z"
   id="path223" />

								<path
   style="fill:#f9591a"
   d="m 591.541,473.466 c 0,0 -1.87,0.904 -3.734,0.892 -7.907,-25.915 -26.683,-46.451 -31.529,-51.444 0.978,-0.567 2.016,-1.113 3.135,-1.668 10e-4,0.001 20.665,18.577 32.128,52.22 z"
   id="path224" />

							</g>

							<path
   style="fill:#f0908b"
   d="m 536.267,436.126 8.745,-1.411 c 0,0 3.009,15.14 0.846,22.193 l -10.156,1.034 z"
   id="path225" />

						</g>

						<path
   style="fill:#346e94"
   d="m 524.7,394.937 c 0,0 -59.996,26.519 -71.092,33.854 -11.096,7.335 -6.959,31.785 5.642,36.675 12.601,4.89 78.051,-3.762 78.051,-3.762 0,0 4.326,-12.037 0.94,-25.202 0,0 25.202,-8.087 35.17,-16.551 9.968,-8.463 3.95,-25.578 3.95,-25.578 z"
   id="path226" />

						<path
   style="opacity:0.3;fill:#326c92"
   d="m 578.215,397.487 -53.704,-0.714 c 0,0 -56.717,27.772 -67.814,35.107 -8.86,5.857 -8.001,22.616 -0.883,31.626 1.061,0.815 2.207,1.482 3.435,1.959 12.601,4.89 78.051,-3.762 78.051,-3.762 0,0 4.326,-12.037 0.94,-25.202 0,0 25.202,-8.087 35.17,-16.551 7.338,-6.227 6.015,-17.133 4.805,-22.463 z"
   id="path227" />

						<g
   id="g239">
							<g
   id="g235">
								<path
   style="fill:#0c1a3c"
   d="m 476.16,328.599 c 0,0 -0.467,42.724 1.344,60.652 h 1.995 c 0,0 -3.066,-42.807 -1.983,-60.652 z"
   id="path228" />

								<g
   id="g231">
									<path
   style="fill:#cb1c3e"
   d="m 478.849,303.231 c 0,0 -5.893,3.385 -6.52,11.284 -0.627,7.899 4.89,15.798 4.89,15.798 0,0 5.392,-7.523 6.645,-14.043 1.254,-6.519 -5.015,-13.039 -5.015,-13.039 z"
   id="path229" />

									<path
   style="fill:#5c8951"
   d="m 477.219,330.314 c 0,0 -5.893,-1.379 -8.275,-7.147 -2.382,-5.768 0,-15.547 0,-15.547 0,0 6.269,1.128 8.275,7.021 2.006,5.893 0,15.673 0,15.673 z"
   id="path230" />

									<path
   style="fill:#80aa74"
   d="m 486.246,307.619 c 0,0 -6.645,2.508 -9.028,11.347 -2.382,8.84 0,11.347 0,11.347 0,0 8.275,-2.344 10.407,-9.761 2.132,-7.416 -1.379,-12.933 -1.379,-12.933 z"
   id="path231" />

								</g>

								<path
   style="fill:#0c1a3c"
   d="m 477.869,388.186 c 0.041,0.14 -0.15,0.218 -0.229,0.096 -2.115,-3.264 -11.049,-16.759 -18.293,-23.234 -6.998,-6.256 -25.809,8.382 -31.449,13.05 -0.337,0.279 -0.809,-0.115 -0.594,-0.496 3.562,-6.323 15.755,-26.631 26.433,-28.507 11.614,-2.04 22.421,33.232 24.132,39.091 z"
   id="path232" />

								<path
   style="fill:#0c1a3c"
   d="m 478.099,390.128 c 0,0 10.369,-29.214 22.155,-37.239 11.786,-8.025 31.471,10.908 31.471,10.908 0,0 -18.188,-5.672 -27.466,-2.663 -9.278,3.01 -26.16,28.994 -26.16,28.994 z"
   id="path233" />

								<path
   style="fill:#0c1a3c"
   d="m 479.287,388.948 c 0,0 -16.835,-11.48 -27.224,-10.783 -6.847,0.459 -14.149,13.918 -17.147,20.132 -0.373,0.773 0.547,1.523 1.226,0.997 4.685,-3.626 14.32,-10.857 18.053,-11.977 5.015,-1.504 25.092,1.631 25.092,1.631 z"
   id="path234" />

								<path
   style="fill:#0c1a3c"
   d="m 477.257,389.768 c 0,0 12.343,-11.41 21.246,-14.419 6.21,-2.099 12.237,8.98 15.314,15.874 0.51,1.142 -0.922,2.151 -1.835,1.295 -3.71,-3.477 -9.284,-8.215 -13.354,-9.52 -6.646,-2.132 -21.371,6.77 -21.371,6.77 z"
   id="path235" />

							</g>

							<g
   id="g238">
								<path
   style="fill:#80aa74"
   d="m 495.337,388.498 c 1.267,0 2.258,1.092 2.135,2.354 l -0.117,1.197 -2.869,34.764 h -32.665 l -0.727,-11.683 -2.359,-24.278 c -0.123,-1.261 0.868,-2.353 2.135,-2.353 h 34.467 z"
   id="path236" />

								<path
   style="opacity:0.3;fill:#5c8951"
   d="m 461.822,426.813 h 32.665 l 2.107,-25.523 -0.056,-0.819 c 0.439,-4.514 -3.109,-8.423 -7.644,-8.423 h -5.292 c -3.154,0 -6.018,1.934 -7.103,4.895 -1.475,4.026 -4.558,9.883 -10.878,15.013 -2.79,2.265 -4.273,5.772 -3.926,9.348 l -0.165,0.823 z"
   id="path237" />

								<path
   style="opacity:0.3;fill:#5c8951"
   d="m 495.432,410.303 v 0 c -2.844,-1.487 -6.289,-0.998 -8.673,1.15 -3.187,2.872 -8.597,6.569 -16.482,8.172 -3.522,0.716 -6.46,3.138 -7.808,6.469 l -0.527,0.654 -0.029,0.065 h 32.573 l 1.308,-15.851 c 0.024,-0.273 -0.119,-0.532 -0.362,-0.659 z"
   id="path238" />

							</g>

						</g>

					</g>

					<g
   id="g251">
						<g
   id="g244">
							<g
   id="g241">
								<path
   style="fill:#0c1a3c"
   d="m 579.047,493.865 c 0,0 -2.077,-0.045 -3.731,-0.903 -0.798,-0.391 -1.475,-0.978 -1.806,-1.82 -1.038,-2.633 -10.532,-25.112 -20.598,-32.168 l 1.309,-21.712 c 0,0 5.356,-3.867 16.4,-4.454 1.128,-0.06 2.302,-0.075 3.551,-0.06 -10e-4,0 9.96,25.94 4.875,61.117 z"
   id="path240" />

								<path
   style="fill:#ffab2f"
   d="m 579.362,494.198 c 0,0 -2.52,0 -4.047,-1.236 4.739,-26.677 -2.648,-53.504 -4.695,-60.154 1.128,-0.06 2.498,-0.275 3.747,-0.26 0,0 10.081,26.472 4.995,61.65 z"
   id="path241" />

							</g>

							<g
   id="g243">
								<path
   style="fill:#ff8b61"
   d="m 554.725,460.196 -9.237,0.944 0.316,-12.338 0.241,-9.479 8.741,-1.414 c 0,0 0.602,2.979 1.068,6.921 0.542,4.553 0.917,10.375 0.038,14.321 -0.125,0.564 -0.591,0.986 -1.167,1.045 z"
   id="path242" />

								<path
   style="fill:#f9591a"
   d="m 555.855,444.83 c -2.844,1.128 -6.515,2.603 -10.051,3.972 l 0.241,-9.479 8.741,-1.414 c 0.001,0 0.603,2.979 1.069,6.921 z"
   id="path243" />

							</g>

						</g>

						<g
   id="g250">
							<path
   style="fill:#346e94"
   d="m 583.194,423.149 c -9.976,8.456 -35.178,16.551 -35.178,16.551 1.249,4.83 1.444,9.509 1.204,13.496 -0.406,6.876 -2.136,11.706 -2.136,11.706 0,0 -65.45,8.651 -78.059,3.762 -6.079,-2.362 -10.171,-9.269 -11.555,-16.596 -1.489,-7.884 0.166,-16.28 5.913,-20.072 11.104,-7.342 71.092,-33.854 71.092,-33.854 l 44.266,-0.481 8.396,-0.09 c -10e-4,-0.001 6.017,17.122 -3.943,25.578 z"
   id="path244" />

							<path
   style="opacity:0.3;fill:#326c92"
   d="m 587.136,397.57 c 0,0 6.018,17.122 -3.942,25.578 -9.976,8.456 -35.178,16.551 -35.178,16.551 -16.611,0.497 -40.052,1.249 -40.052,1.249 0,0 72.07,-25.187 70.866,-40.038 -0.09,-1.159 -0.12,-2.242 -0.09,-3.25 z"
   id="path245" />

							<path
   style="opacity:0.3;fill:#326c92"
   d="m 537.177,440.029 c 3.726,-0.115 7.427,-0.227 10.839,-0.33 0,0 25.202,-8.094 35.178,-16.551 3.617,-3.07 5.121,-7.283 5.577,-11.404 -7.56,9.547 -33.801,21.185 -51.594,28.285 z"
   id="path246" />

							<path
   style="opacity:0.3;fill:#326c92"
   d="m 549.22,453.196 c -0.406,6.876 -2.136,11.706 -2.136,11.706 0,0 -65.45,8.651 -78.059,3.762 -6.079,-2.362 -10.171,-9.269 -11.555,-16.596 16.805,17.272 68.097,9.222 91.75,1.128 z"
   id="path247" />

							<path
   style="opacity:0.3;fill:#326c92"
   d="m 474.877,464.185 c -2.779,-1.08 -5.137,-3.116 -7.016,-5.701 -4.168,-1.568 -7.719,-3.67 -10.391,-6.417 1.384,7.327 5.476,14.234 11.555,16.596 12.609,4.89 78.059,-3.762 78.059,-3.762 0,0 0.516,-1.447 1.05,-3.873 -15.325,1.878 -62.724,7.242 -73.257,3.157 z"
   id="path248" />

							<g
   id="g249">
								<path
   style="opacity:0.2;fill:#ffe9e3"
   d="m 456.956,446.138 c -0.035,1.955 0.141,3.958 0.513,5.929 0.117,0.62 0.261,1.236 0.417,1.848 0.036,0.143 0.074,0.286 0.112,0.429 0.165,0.612 0.343,1.219 0.546,1.816 0.004,0.011 0.008,0.021 0.011,0.031 0.203,0.594 0.429,1.177 0.669,1.751 0.046,0.111 0.093,0.222 0.14,0.333 0.511,1.182 1.099,2.314 1.761,3.373 0.043,0.07 0.086,0.14 0.13,0.209 0.688,1.075 1.452,2.072 2.288,2.968 0.038,0.041 0.075,0.082 0.113,0.122 0.429,0.452 0.875,0.879 1.341,1.274 -2.761,-3.235 -4.657,-7.606 -5.514,-12.141 -1.49,-7.884 0.165,-16.28 5.913,-20.072 9.159,-6.056 60.231,-28.341 77.845,-35.963 l -8.767,0.095 c 0,0 -59.988,26.511 -71.092,33.854 -4.31,2.845 -6.319,8.279 -6.426,14.144 z"
   id="path249" />

							</g>

						</g>

					</g>

				</g>

				<path
   style="fill:#80aa74"
   d="m 566.443,290.385 -16.291,12.714 c 0,0 -8.902,10.715 -14.92,44.318 -6.018,33.603 -13.541,47.395 -13.541,47.395 0,0 18.807,14.795 43.445,13.103 24.638,-1.693 30.092,-11.096 30.092,-11.096 0,0 -2.445,-36.487 -5.642,-66.767 -3.197,-30.281 -23.143,-39.667 -23.143,-39.667 z"
   id="path252" />

				<g
   id="g257">
					<g
   id="g254">
						<path
   style="fill:#5c8951"
   d="m 559.677,384.285 c -13.662,5.642 -54.918,-11.42 -54.918,-11.42 l 1.941,-7.809 3.325,-13.376 36.246,4.258 c 0,0 4.002,-10.908 6.259,-22.81 2.257,-11.916 4.785,-24.45 15.302,-24.705 4.363,-0.105 8.892,2.979 10.457,14.73 0.331,2.437 0.526,5.236 0.572,8.471 0.255,18.807 -5.507,47.018 -19.184,52.661 z"
   id="path253" />

						<path
   style="opacity:0.3;fill:#5c8951"
   d="m 559.677,384.285 c -13.662,5.642 -54.918,-11.42 -54.918,-11.42 l 1.941,-7.809 c 7.403,2.257 28.633,7.914 48.027,5.461 17.168,-2.182 22.133,-31.145 23.562,-47.365 0.331,2.437 0.526,5.236 0.572,8.471 0.255,18.808 -5.507,47.019 -19.184,52.662 z"
   id="path254" />

					</g>

					<g
   id="g256">
						<path
   style="fill:#ffab2f"
   d="m 520,351.68 -3.852,16.084 -2.724,11.375 -26.526,-18.522 c 0,0 -9.088,0.03 -11.917,-0.918 -2.813,-0.933 -6.334,-5.944 -6.395,-7.328 -0.03,-0.857 0.933,-6.635 1.67,-10.953 0.466,-2.663 0.843,-4.77 0.843,-4.845 0,-0.195 -0.692,-2.949 0.557,-4.514 1.264,-1.565 5.462,-0.376 8.471,1.128 2.813,1.414 4.499,2.046 4.709,2.106 -0.075,-0.241 -0.873,-2.528 -0.572,-5.431 0.316,-3.069 4.017,3.13 4.017,3.13 l 6.575,13.105 z"
   id="path255" />

						<path
   style="opacity:0.3;fill:#326c92"
   d="m 516.149,367.764 -2.724,11.375 -26.526,-18.522 c 0,0 -9.088,0.03 -11.917,-0.918 -2.813,-0.933 -6.334,-5.944 -6.395,-7.328 -0.024,-0.69 0.594,-4.563 1.221,-8.299 0.189,-1.125 1.489,-1.656 2.411,-0.984 4.896,3.567 12.375,5.536 15.379,6.22 0.832,0.189 1.553,0.682 2.034,1.387 1.612,2.367 5.918,8.064 12.689,12.524 3.687,2.424 8.953,3.778 13.828,4.545 z"
   id="path256" />

					</g>

				</g>

				<g
   id="g264">
					<g
   id="g258">
						<path
   style="fill:#ff8b61"
   d="m 566.609,291.8 c 0.077,0.661 -0.191,1.31 -0.717,1.717 -2.689,2.085 -11.092,8.603 -14.444,11.262 -0.559,0.444 -1.38,0.034 -1.366,-0.68 l 0.296,-15.613 12.774,-13.797 0.993,-1.068 1.746,12.037 z"
   id="path257" />

						<path
   style="fill:#f9591a"
   d="m 563.152,274.69 c -0.935,15.084 -5.299,19.854 -12.774,26.639 v -12.841 z"
   id="path258" />

					</g>

					<g
   id="g263">
						<g
   id="g260">
							<path
   style="fill:#ff8b61"
   d="m 566.899,267.167 c -0.722,8.546 -7.99,17.288 -14.835,21.501 -3.295,2.031 -6.5,3.009 -8.802,2.392 -7.087,-1.881 -3.581,-12.729 -4.71,-25.954 -1.128,-13.225 2.257,-19.003 2.257,-19.003 3.416,-0.903 6.545,-1.128 9.344,-0.782 11.419,1.323 17.588,11.69 16.746,21.846 z"
   id="path259" />

							<path
   style="opacity:0.5;fill:#f9591a"
   d="m 566.899,267.167 c -0.722,8.546 -7.99,17.288 -14.835,21.501 4.784,-14.384 0.376,-34.726 -1.911,-43.348 11.419,1.324 17.588,11.691 16.746,21.847 z"
   id="path260" />

						</g>

						<g
   id="g262">
							<path
   style="fill:#cb1c3e"
   d="m 580.591,262.848 c -0.527,1.61 -1.535,3.37 -3.13,5.236 -6.876,7.99 -11.57,17.574 -11.57,17.574 l -4.333,-18.145 -5.732,0.481 c 0,0 -0.466,-10.442 -3.19,-12.894 -2.738,-2.438 -14.083,0.978 -20.507,-4.604 -2.377,-2.061 -3.747,-6.064 -3.115,-10.833 0.557,-4.349 2.813,-9.359 7.538,-14.083 2.543,-2.543 7.237,-5.928 9.69,-1.79 2.438,4.138 0.181,9.313 16.174,11.285 18.13,2.242 11.284,18.717 11.284,18.717 5.04,0.134 8.591,3.76 6.891,9.056 z"
   id="path261" />

							<path
   style="opacity:0.3;fill:#326c92"
   d="m 573.641,257.333 c 4.932,0.876 7.111,6.878 3.868,10.695 -0.016,0.019 -0.032,0.037 -0.048,0.056 -6.876,7.99 -11.57,17.574 -11.57,17.574 l -4.333,-18.145 -5.732,0.481 c 0,0 -0.466,-10.442 -3.19,-12.894 -2.738,-2.438 -14.083,0.978 -20.507,-4.604 -0.791,-0.686 -1.471,-1.587 -2.002,-2.66 -1.475,-2.978 1.453,-6.171 4.548,-4.961 8.257,3.228 20.498,4.102 25.921,4.326 5.675,0.236 6.736,4.266 6.742,7.227 0.003,1.537 1.243,2.779 2.778,2.705 1.052,-0.051 2.278,-0.021 3.525,0.2 z"
   id="path262" />

						</g>

						<path
   style="fill:#ff8b61"
   d="m 559.823,269.397 c 0,0 1.646,-8.04 8.04,-6.677 5.337,1.138 2.585,10.168 -3.719,12.961 -1.954,0.866 -4.167,-0.491 -4.224,-2.627 z"
   id="path263" />

					</g>

				</g>

			</g>

		</g>

	</g>

</g>
    </g>
  </g>
</svg>
